<?xml version="1.0" encoding="UTF-8" standalone="no"?>
<!-- Created with Inkscape (http://www.inkscape.org/) -->

<svg
   width="256"
   height="256"
   viewBox="0 0 67.733332 67.733334"
   version="1.1"
   id="svg1"
   inkscape:export-filename="Overloaded.png"
   inkscape:export-xdpi="96"
   inkscape:export-ydpi="96"
   inkscape:version="1.4.3 (0d15f75042, 2025-12-25)"
   sodipodi:docname="Bleeding.svg"
   xml:space="preserve"
   xmlns:inkscape="http://www.inkscape.org/namespaces/inkscape"
   xmlns:sodipodi="http://sodipodi.sourceforge.net/DTD/sodipodi-0.dtd"
   xmlns="http://www.w3.org/2000/svg"
   xmlns:svg="http://www.w3.org/2000/svg"><sodipodi:namedview
     id="namedview1"
     pagecolor="#ffffff"
     bordercolor="#000000"
     borderopacity="0.25"
     inkscape:showpageshadow="2"
     inkscape:pageopacity="0.0"
     inkscape:pagecheckerboard="false"
     inkscape:deskcolor="#d1d1d1"
     inkscape:document-units="mm"
     inkscape:zoom="2.8284271"
     inkscape:cx="131.34509"
     inkscape:cy="133.28963"
     inkscape:window-width="1900"
     inkscape:window-height="1047"
     inkscape:window-x="0"
     inkscape:window-y="0"
     inkscape:window-maximized="1"
     inkscape:current-layer="layer1" /><defs
     id="defs1" /><g
     inkscape:label="Layer 1"
     inkscape:groupmode="layer"
     id="layer1"><g
       id="g2"
       transform="matrix(1.0415794,0,0,1.0415794,-1.4081553,-1.4081553)"><circle
         style="fill:none;fill-opacity:1;stroke:#a53030;stroke-width:1.2564;stroke-dasharray:none;stroke-opacity:1"
         id="path1"
         cx="30.133722"
         cy="37.227154"
         r="25.624506"
         transform="rotate(-6.0113705)" /><circle
         style="fill:none;fill-opacity:1;stroke:#a53030;stroke-width:1.3621;stroke-dasharray:none;stroke-opacity:1"
         id="path1-3"
         cx="30.133722"
         cy="37.227154"
         r="22.186811"
         transform="rotate(-6.0113705)" /><path
         id="path4"
         style="fill:none;stroke:#a53030;stroke-width:1.3621;stroke-linejoin:round;stroke-opacity:1"
         inkscape:transform-center-x="-1.1323614"
         inkscape:transform-center-y="-2.2523164"
         d="M 52.58316,59.616963 33.996815,56.053096 15.160398,59.624388 12.684165,40.466386 3.5890663,24.03552 20.836357,15.909336 33.860353,2.0329657 46.258562,15.462984 64.140368,24.023506 54.940832,40.804541 Z"
         sodipodi:nodetypes="ccccccccccc" /><path
         id="path4-2"
         style="fill:none;stroke:#a53030;stroke-width:1.3621;stroke-linejoin:round;stroke-opacity:1"
         inkscape:transform-center-x="1.1323615"
         inkscape:transform-center-y="2.2523165"
         d="M 15.150178,8.1163756 33.736524,11.680243 52.572941,8.108951 55.049173,27.266953 64.144272,43.697819 46.896981,51.824003 33.872985,65.700373 21.474777,52.270355 3.592971,43.709833 12.792506,26.928798 Z"
         sodipodi:nodetypes="ccccccccccc" /></g><!-- Icon from System UIcons by Corey Ginnivan - https://github.com/CoreyGinnivan/system-uicons/blob/master/LICENSE --><!-- Icon from Remix Icon by Remix Design - https://github.com/Remix-Design/RemixIcon/blob/master/License --><!-- Icon from Remix Icon by Remix Design - https://github.com/Remix-Design/RemixIcon/blob/master/License --><path
       fill="currentColor"
       d="m 21.948112,18.647807 26.648837,26.650317 a 2.2171063,2.2171063 0 1 1 -3.134721,3.136196 l -6.792638,-6.792638 -5.227493,5.223063 -6.089134,-6.089134 v 3.872215 a 1.4779466,1.4779466 0 1 1 -2.955893,0 v -5.91178 a 1.4779456,1.4779456 0 0 0 -2.945548,-0.172941 l -0.0089,0.172941 v 1.477944 a 1.4779456,1.4779456 0 1 1 -2.955888,0 V 27.22876 a 11.794006,11.794006 0 0 1 3.205674,-8.316403 z m 0.356159,4.537294 -0.07535,0.162551 a 8.8676739,8.8676739 0 0 0 -0.771485,3.108121 l -0.01452,0.458158 v 0.175901 a 8.8381148,8.8381148 0 0 0 2.33515,5.916216 l 0.260137,0.273432 9.40565,9.405644 4.179626,-4.181107 z"
       id="path1-1"
       style="stroke-width:2;stroke-dasharray:none;fill:#a53030;fill-opacity:1" /></g></svg>
