<?xml version="1.0" encoding="UTF-8" standalone="no"?>
<!-- Created with Inkscape (http://www.inkscape.org/) -->

<svg
   width="256"
   height="256"
   viewBox="0 0 67.733332 67.733334"
   version="1.1"
   id="svg1"
   inkscape:export-filename="Eclipse.png"
   inkscape:export-xdpi="96"
   inkscape:export-ydpi="96"
   inkscape:version="1.4.3 (0d15f75042, 2025-12-25)"
   sodipodi:docname="Blink.svg"
   xml:space="preserve"
   xmlns:inkscape="http://www.inkscape.org/namespaces/inkscape"
   xmlns:sodipodi="http://sodipodi.sourceforge.net/DTD/sodipodi-0.dtd"
   xmlns="http://www.w3.org/2000/svg"
   xmlns:svg="http://www.w3.org/2000/svg"><sodipodi:namedview
     id="namedview1"
     pagecolor="#000000"
     bordercolor="#000000"
     borderopacity="0.25"
     inkscape:showpageshadow="2"
     inkscape:pageopacity="0.0"
     inkscape:pagecheckerboard="false"
     inkscape:deskcolor="#d1d1d1"
     inkscape:document-units="mm"
     inkscape:zoom="2.8284271"
     inkscape:cx="74.599765"
     inkscape:cy="126.21856"
     inkscape:window-width="1900"
     inkscape:window-height="1047"
     inkscape:window-x="0"
     inkscape:window-y="0"
     inkscape:window-maximized="1"
     inkscape:current-layer="g2" /><defs
     id="defs1" /><g
     inkscape:label="Layer 1"
     inkscape:groupmode="layer"
     id="layer1"><circle
       style="fill:none;fill-opacity:1;stroke:#c7cfcc;stroke-width:1.5;stroke-linejoin:round;stroke-dasharray:none;stroke-opacity:1"
       id="path10"
       cx="33.866665"
       cy="33.866665"
       r="30.501602" /><path
       style="fill:none;fill-opacity:1;stroke:#c7cfcc;stroke-width:1.5;stroke-linejoin:round;stroke-dasharray:none;stroke-opacity:1"
       d="m 33.866664,3.3650626 c 30.678926,0 33.866666,61.0032034 0,61.0032034"
       id="path11" /><path
       style="fill:none;fill-opacity:1;stroke:#c7cfcc;stroke-width:1.5;stroke-linejoin:round;stroke-dasharray:none;stroke-opacity:1"
       d="M 60.281827,18.615862 C 75.62129,45.184592 24.384836,78.446857 7.4515028,49.117464"
       id="path11-4"
       inkscape:transform-center-x="-1.4148043"
       inkscape:transform-center-y="5.7187678" /><path
       style="fill:none;fill-opacity:1;stroke:#c7cfcc;stroke-width:1.5;stroke-linejoin:round;stroke-dasharray:none;stroke-opacity:1"
       d="M 55.434556,55.434553 C 33.741279,77.12783 -11.648572,36.246123 12.298777,12.298774"
       id="path11-4-7"
       inkscape:transform-center-x="3.3961391"
       inkscape:transform-center-y="3.0717168" /><path
       style="fill:none;fill-opacity:1;stroke:#c7cfcc;stroke-width:1.5;stroke-linejoin:round;stroke-dasharray:none;stroke-opacity:1"
       d="M 18.615866,60.281827 C -7.9528649,44.942364 19.788075,-9.4818296 49.117468,7.4515033"
       id="path11-4-7-0"
       inkscape:transform-center-x="5.3515076"
       inkscape:transform-center-y="-1.6148083" /><path
       style="fill:none;fill-opacity:1;stroke:#c7cfcc;stroke-width:1.5;stroke-linejoin:round;stroke-dasharray:none;stroke-opacity:1"
       d="m 3.3650639,33.866666 c -8e-7,-30.6789274 61.0032031,-33.86666542906885 61.0032041,0"
       id="path11-4-7-0-5"
       inkscape:transform-center-y="-12.109668" /><!-- Icon from MingCute Icon by MingCute Design - https://github.com/Richard9394/MingCute/blob/main/LICENSE --><g
       fill="none"
       fill-rule="evenodd"
       id="g2"
       transform="matrix(1.6756944,0,0,1.6756944,13.758334,12.185864)"
       style="stroke-width:1.19353505;stroke-dasharray:none;fill:#c7cfcc;fill-opacity:1"><!-- Icon from Tabler Icons by Pawe\u0142 Kuna - https://github.com/tabler/tabler-icons/blob/master/LICENSE --><!-- Icon from Huge Icons by Hugeicons - undefined --><!-- Icon from Phosphor by Phosphor Icons - https://github.com/phosphor-icons/core/blob/main/LICENSE --><!-- Icon from Myna UI Icons by Praveen Juge - https://github.com/praveenjuge/mynaui-icons/blob/main/LICENSE --><path
         fill="currentColor"
         d="m 8.2515999,19.116803 a 10.611193,10.611193 0 0 0 3.7481501,0.674326 c 4.295821,0 7.66744,-2.486788 9.909482,-5.718065 0.482622,-0.674325 0.479194,-1.579702 0.0017,-2.267715 A 15.232196,15.232196 0 0 0 18.842257,8.5244389 l -1.227132,1.2271313 a 13.349566,13.349566 0 0 1 2.892401,3.0344568 0.25672241,0.25672241 0 0 1 -0.0017,0.304671 c -1.951091,2.820521 -4.891417,4.98897 -8.506069,4.98897 A 8.8997099,8.8997099 0 0 1 9.6139449,17.754491 l -1.364046,1.362338 z M 14.388978,8.1359283 a 8.8997099,8.8997099 0 0 0 -2.38752,-0.3251762 c -3.6129381,0 -6.5515561,2.1684479 -8.5163342,5.0043779 a 0.25672241,0.25672241 0 0 0 0.00841,0.290957 13.349566,13.349566 0 0 0 2.8924011,3.032749 l -1.227132,1.227132 a 15.232196,15.232196 0 0 1 -3.0686891,-3.280911 1.9510903,1.9510903 0 0 1 0,-2.259157 C 4.3288799,8.589474 7.7039219,6.0992652 11.999749,6.0992652 a 10.611193,10.611193 0 0 1 3.753281,0.6743252 l -1.364053,1.3640524 z m -3.274067,8.1158497 a 3.4281,3.4281 0 0 0 4.193131,-4.193132 l -2.096562,2.096569 z m -0.323495,-4.5166 2.096563,-2.0965687 A 3.4281,3.4281 0 0 0 8.6948469,13.831747 Z M 20.331218,5.715891 A 0.77701317,0.77701317 0 0 0 19.338586,4.5264128 L 19.230755,4.6154206 3.6733795,20.17451 a 0.7787247,0.7787247 0 0 0 0.9909434,1.189484 L 4.7721539,21.274986 20.329536,5.715897 Z"
         id="path1-1"
         style="fill:#c7cfcc;fill-opacity:1;stroke-width:1.19354;stroke-dasharray:none" /></g></g></svg>
