<?xml version="1.0" encoding="UTF-8" standalone="no"?>
<!-- Created with Inkscape (http://www.inkscape.org/) -->

<svg
   width="256"
   height="256"
   viewBox="0 0 67.733332 67.733334"
   version="1.1"
   id="svg1"
   inkscape:export-filename="Burned.png"
   inkscape:export-xdpi="96"
   inkscape:export-ydpi="96"
   inkscape:version="1.4.3 (0d15f75042, 2025-12-25)"
   sodipodi:docname="Burned.svg"
   xml:space="preserve"
   xmlns:inkscape="http://www.inkscape.org/namespaces/inkscape"
   xmlns:sodipodi="http://sodipodi.sourceforge.net/DTD/sodipodi-0.dtd"
   xmlns="http://www.w3.org/2000/svg"
   xmlns:svg="http://www.w3.org/2000/svg"><sodipodi:namedview
     id="namedview1"
     pagecolor="#ffffff"
     bordercolor="#000000"
     borderopacity="0.25"
     inkscape:showpageshadow="2"
     inkscape:pageopacity="0.0"
     inkscape:pagecheckerboard="false"
     inkscape:deskcolor="#d1d1d1"
     inkscape:document-units="mm"
     inkscape:zoom="2.8284271"
     inkscape:cx="131.34509"
     inkscape:cy="133.28963"
     inkscape:window-width="1900"
     inkscape:window-height="1047"
     inkscape:window-x="0"
     inkscape:window-y="0"
     inkscape:window-maximized="1"
     inkscape:current-layer="layer1" /><defs
     id="defs1" /><g
     inkscape:label="Layer 1"
     inkscape:groupmode="layer"
     id="layer1"><g
       id="g2"
       transform="matrix(1.0415794,0,0,1.0415794,-1.4091732,-1.4081585)"><circle
         style="fill:none;fill-opacity:1;stroke:#a53030;stroke-width:1.2564;stroke-dasharray:none;stroke-opacity:1"
         id="path1"
         cx="30.133722"
         cy="37.227154"
         r="25.624506"
         transform="rotate(-6.0113705)" /><circle
         style="fill:none;fill-opacity:1;stroke:#a53030;stroke-width:1.3621;stroke-dasharray:none;stroke-opacity:1"
         id="path1-3"
         cx="30.133722"
         cy="37.227154"
         r="22.186811"
         transform="rotate(-6.0113705)" /><path
         id="path4"
         style="fill:none;stroke:#a53030;stroke-width:1.3621;stroke-linejoin:round;stroke-opacity:1"
         inkscape:transform-center-x="-1.1323614"
         inkscape:transform-center-y="-2.2523164"
         d="M 52.585109,59.616963 33.998764,56.053096 15.162347,59.624388 12.686114,40.466386 3.5910152,24.03552 20.838306,15.909336 33.862302,2.0329657 46.260511,15.462984 64.142317,24.023506 54.942781,40.804541 Z"
         sodipodi:nodetypes="ccccccccccc" /><path
         id="path4-2"
         style="fill:none;stroke:#a53030;stroke-width:1.3621;stroke-linejoin:round;stroke-opacity:1"
         inkscape:transform-center-x="1.1323615"
         inkscape:transform-center-y="2.2523165"
         d="M 15.150178,8.1163756 33.736524,11.680243 52.572941,8.108951 55.049173,27.266953 64.144272,43.697819 46.896981,51.824003 33.872985,65.700373 21.474777,52.270355 3.592971,43.709833 12.792506,26.928798 Z"
         sodipodi:nodetypes="ccccccccccc" /></g><!-- Icon from System UIcons by Corey Ginnivan - https://github.com/CoreyGinnivan/system-uicons/blob/master/LICENSE --><!-- Icon from Remix Icon by Remix Design - https://github.com/Remix-Design/RemixIcon/blob/master/License --><!-- Icon from Remix Icon by Remix Design - https://github.com/Remix-Design/RemixIcon/blob/master/License --><!-- Icon from Fluent UI System Icons by Microsoft Corporation - https://github.com/microsoft/fluentui-system-icons/blob/main/LICENSE --><!-- Icon from Tabler Icons by Pawe\u0142 Kuna - https://github.com/tabler/tabler-icons/blob/master/LICENSE --><!-- Icon from Charm Icons by Jay Newey - https://github.com/jaynewey/charm-icons/blob/main/LICENSE --><!-- Icon from Garden SVG Icons by Zendesk - https://github.com/zendeskgarden/svg-icons/blob/main/LICENSE.md --><!-- Icon from IconPark Outline by ByteDance - https://github.com/bytedance/IconPark/blob/master/LICENSE --><!-- Icon from Material Design Icons by Pictogrammers - https://github.com/Templarian/MaterialDesign/blob/master/LICENSE --><!-- Icon from Material Design Icons by Pictogrammers - https://github.com/Templarian/MaterialDesign/blob/master/LICENSE --><!-- Icon from Health Icons by Resolve to Save Lives - https://github.com/resolvetosavelives/healthicons/blob/main/LICENSE --><g
       fill="currentColor"
       id="g2-5"
       transform="matrix(0.91064318,0,0,0.91064318,11.994205,12.367653)"
       style="fill:#a53030;fill-opacity:1"><path
         fill-rule="evenodd"
         d="m 8.037,17 c 0,0.744 -0.07,1.448 -0.197,2.123 -0.462,2.47 -1.676,4.562 -2.946,6.915 -1.469,2.721 -0.87,5.176 0.453,7.468 0.492,0.852 1.084,1.682 1.707,2.494 v -0.536 c -0.002,-0.986 -0.003,-1.748 0.048,-2.39 0.146,-1.854 0.725,-2.707 2.974,-5.041 1.026,1.897 0.77,3.861 0.392,5.857 q -0.056,0.297 -0.115,0.596 A 44,44 0 0 0 10.076,36 c 0.41,-0.205 0.817,-0.395 1.216,-0.582 q 0.357,-0.167 0.704,-0.334 c 1.835,-0.88 3.448,-1.82 4.472,-3.925 1.209,-2.483 0.676,-4.445 -0.155,-6.819 -0.282,-0.804 -0.597,-1.655 -0.89,-2.59 -0.357,1.357 -1.022,2.59 -1.454,3.454 C 13.109,21.764 10.657,19.245 8.037,17"
         clip-rule="evenodd"
         id="path1-9"
         style="fill:#a53030;fill-opacity:1" /><path
         d="M 39,17.22 H 22.269 c -0.987,0 -1.377,-1.276 -0.56,-1.828 l 4.036,-2.724 a 2.552,2.552 0 0 0 -2.643,-4.36 l -12.815,6.938 q -0.232,0.125 -0.458,0.26 c 1.447,1.302 2.652,2.634 4.062,4.994 0.61,-1 1.039,-2.214 1.5,-4 0.24,0.777 0.648,1.742 1.108,2.83 1.69,3.993 4.077,9.638 1.392,13.67 -1.994,2.746 -3.678,3.566 -5.899,4.647 l -0.303,0.148 q -0.343,0.167 -0.695,0.335 c 1.524,0.7 3.22,1.09 5.006,1.09 h 17 a 2,2 0 0 0 0,-4 H 22.889 v -2 h 16.11 a 2,2 0 0 0 0,-4 H 25 v -2 h 17 a 2,2 0 1 0 0,-4 H 25 v -2 h 14 a 2,2 0 0 0 0,-4"
         id="path2"
         style="fill:#a53030;fill-opacity:1" /></g></g></svg>
