<?xml version="1.0" encoding="UTF-8" standalone="no"?>
<!-- Created with Inkscape (http://www.inkscape.org/) -->

<svg
   width="256"
   height="256"
   viewBox="0 0 67.733332 67.733334"
   version="1.1"
   id="svg1"
   inkscape:export-filename="Spacing.png"
   inkscape:export-xdpi="96"
   inkscape:export-ydpi="96"
   inkscape:version="1.4.3 (0d15f75042, 2025-12-25)"
   sodipodi:docname="CamelCase.svg"
   xml:space="preserve"
   xmlns:inkscape="http://www.inkscape.org/namespaces/inkscape"
   xmlns:sodipodi="http://sodipodi.sourceforge.net/DTD/sodipodi-0.dtd"
   xmlns="http://www.w3.org/2000/svg"
   xmlns:svg="http://www.w3.org/2000/svg"><sodipodi:namedview
     id="namedview1"
     pagecolor="#000000"
     bordercolor="#000000"
     borderopacity="0.25"
     inkscape:showpageshadow="2"
     inkscape:pageopacity="0.0"
     inkscape:pagecheckerboard="false"
     inkscape:deskcolor="#d1d1d1"
     inkscape:document-units="mm"
     inkscape:zoom="2.8284271"
     inkscape:cx="74.599765"
     inkscape:cy="126.21856"
     inkscape:window-width="1900"
     inkscape:window-height="1047"
     inkscape:window-x="0"
     inkscape:window-y="0"
     inkscape:window-maximized="1"
     inkscape:current-layer="g2" /><defs
     id="defs1" /><g
     inkscape:label="Layer 1"
     inkscape:groupmode="layer"
     id="layer1"><circle
       style="fill:none;fill-opacity:1;stroke:#c7cfcc;stroke-width:1.5;stroke-linejoin:round;stroke-dasharray:none;stroke-opacity:1"
       id="path10"
       cx="33.866665"
       cy="33.866665"
       r="30.501602" /><path
       style="fill:none;fill-opacity:1;stroke:#c7cfcc;stroke-width:1.5;stroke-linejoin:round;stroke-dasharray:none;stroke-opacity:1"
       d="m 33.866664,3.3650626 c 30.678926,0 33.866666,61.0032034 0,61.0032034"
       id="path11" /><path
       style="fill:none;fill-opacity:1;stroke:#c7cfcc;stroke-width:1.5;stroke-linejoin:round;stroke-dasharray:none;stroke-opacity:1"
       d="M 60.281827,18.615862 C 75.62129,45.184592 24.384836,78.446857 7.4515028,49.117464"
       id="path11-4"
       inkscape:transform-center-x="-1.4148043"
       inkscape:transform-center-y="5.7187678" /><path
       style="fill:none;fill-opacity:1;stroke:#c7cfcc;stroke-width:1.5;stroke-linejoin:round;stroke-dasharray:none;stroke-opacity:1"
       d="M 55.434556,55.434553 C 33.741279,77.12783 -11.648572,36.246123 12.298777,12.298774"
       id="path11-4-7"
       inkscape:transform-center-x="3.3961391"
       inkscape:transform-center-y="3.0717168" /><path
       style="fill:none;fill-opacity:1;stroke:#c7cfcc;stroke-width:1.5;stroke-linejoin:round;stroke-dasharray:none;stroke-opacity:1"
       d="M 18.615866,60.281827 C -7.9528649,44.942364 19.788075,-9.4818296 49.117468,7.4515033"
       id="path11-4-7-0"
       inkscape:transform-center-x="5.3515076"
       inkscape:transform-center-y="-1.6148083" /><path
       style="fill:none;fill-opacity:1;stroke:#c7cfcc;stroke-width:1.5;stroke-linejoin:round;stroke-dasharray:none;stroke-opacity:1"
       d="m 3.3650639,33.866666 c -8e-7,-30.6789274 61.0032031,-33.86666542906885 61.0032041,0"
       id="path11-4-7-0-5"
       inkscape:transform-center-y="-12.109668" /><!-- Icon from MingCute Icon by MingCute Design - https://github.com/Richard9394/MingCute/blob/main/LICENSE --><g
       fill="none"
       fill-rule="evenodd"
       id="g2"
       transform="matrix(1.6756944,0,0,1.6756944,13.758334,12.185864)"
       style="stroke-width:1.19353505;stroke-dasharray:none;fill:#c7cfcc;fill-opacity:1"><!-- Icon from Tabler Icons by Pawe\u0142 Kuna - https://github.com/tabler/tabler-icons/blob/master/LICENSE --><!-- Icon from Huge Icons by Hugeicons - undefined --><path
         style="baseline-shift:baseline;display:inline;overflow:visible;vector-effect:none;fill:#c7cfcc;fill-rule:nonzero;stroke-linecap:round;stroke-linejoin:round;enable-background:accumulate;stop-color:#000000;stop-opacity:1;opacity:1;fill-opacity:1"
         d="m 14.550781,3.671875 c -1.268575,0 -2.216121,0.8095663 -2.849609,1.7246094 -0.633488,0.9150431 -1.025832,1.9798635 -1.287109,2.7636719 a 0.59682722,0.59682722 0 0 0 -0.01953,0.072266 C 10.216797,9.1210912 9.8636726,9.4861661 9.5195313,9.6757813 9.1860633,9.8595156 8.80849,9.8516562 8.6054688,9.8066406 8.2172501,9.669154 8.0653089,9.4351677 7.9765625,9.0742188 7.8909432,8.7259881 7.933498,8.3043454 7.9902344,8.0449219 L 8.2597656,7.640625 a 0.59682722,0.59682722 0 0 0 0.00195,-0.00391 C 8.5722111,7.1603033 8.6510859,6.6110468 8.5273438,6.1464844 8.4036016,5.681922 8.1054173,5.3090907 7.7324219,5.0605469 7.3594264,4.812003 6.8982663,4.6794744 6.421875,4.7441406 5.9454837,4.8088068 5.4705295,5.0925125 5.1503906,5.5625 a 0.59682722,0.59682722 0 0 0 -0.00391,0.00586 L 5.0507812,5.7128906 H 3.8398438 c -1.4490903,2.2e-6 -2.6367166,1.1876285 -2.6367188,2.6367188 -1.4e-6,0.8858072 0.7313803,1.6152358 1.6171875,1.6152344 h 1.0292969 c 0.1078365,1.0567762 0.4441802,2.2424422 1.1523437,3.3046872 0.7458028,1.118705 1.942759,1.957334 3.4257813,2.154297 L 9.3183594,19.429687 7.953125,21.25 a 0.59682722,0.59682722 0 0 0 0.4765625,0.955078 H 12 a 0.59682722,0.59682722 0 0 0 0.597656,-0.597656 v -5.619141 c 1.430363,0.57197 3.01602,0.694744 4.494141,0.378906 l 0.412109,3.097657 -0.9375,1.876953 a 0.59682722,0.59682722 0 0 0 0.533203,0.863281 h 3.060547 a 0.59682722,0.59682722 0 0 0 0.595703,-0.597656 V 11.386719 c 0,-0.266441 -0.154333,-0.473136 -0.208984,-0.720703 0.533336,0.488421 1.054687,1.261065 1.054687,2.783203 a 0.59676754,0.59676754 0 0 0 0.597657,0.595703 0.59676754,0.59676754 0 0 0 0.597656,-0.595703 c 0,-1.93837 -0.788129,-3.166786 -1.59375,-3.8378909 C 20.481303,9.0100307 19.873561,8.9001439 19.724609,8.8671875 19.443856,8.5115478 19.176914,8.1375898 18.849609,7.8515625 17.96804,7.0787998 17.438511,6.1418087 16.890625,5.3164062 16.616682,4.903705 16.338479,4.5152218 15.966797,4.203125 15.595114,3.8910282 15.103405,3.671875 14.550781,3.671875 Z m 0,1.1933594 c 0.271475,0 0.436597,0.074073 0.648438,0.2519531 0.211841,0.1778802 0.443398,0.4769189 0.697265,0.859375 0.507734,0.7649121 1.105648,1.8439439 2.166016,2.7734375 0.853316,0.7457022 1.5,1.666765 1.5,2.636719 v 9.625 h -1.498047 l 0.589844,-1.177735 a 0.59682722,0.59682722 0 0 0 0.05664,-0.34375 l -0.509765,-3.847656 a 0.59682722,0.59682722 0 0 0 -0.767578,-0.490234 c -1.576394,0.485738 -3.75527,0.356317 -5.128906,-0.460938 a 0.59676754,0.59676754 0 0 0 0,-0.002 c -0.593933,-0.352935 -0.728516,-0.776298 -0.728516,-0.730469 a 0.59676754,0.59676754 0 0 0 -0.595703,-0.597656 0.59676754,0.59676754 0 0 0 -0.597656,0.597656 c 0,0.602379 0.415207,1.082046 1.019531,1.513672 v 5.539063 H 9.6230469 L 10.4375,19.925781 A 0.59682722,0.59682722 0 0 0 10.542969,19.4375 L 9.5234375,14.849609 a 0.59682722,0.59682722 0 0 0 -0.5839844,-0.46875 c -1.297808,0 -2.253932,-0.736366 -2.9453125,-1.773437 C 5.3027601,11.570351 4.9472656,10.239874 4.9472656,9.3691406 A 0.59682722,0.59682722 0 0 0 4.3496094,8.7714844 H 2.8203125 c -0.2407716,4e-7 -0.4218754,-0.1811035 -0.421875,-0.421875 1.2e-6,-0.8040573 0.637349,-1.4433582 1.4414063,-1.4433594 H 5.3710937 A 0.59682722,0.59682722 0 0 0 5.8671875,6.640625 l 0.2695312,-0.40625 0.00195,-0.00195 0.00195,-0.00195 C 6.291593,6.011674 6.4327243,5.9482667 6.5839844,5.9277344 c 0.1527901,-0.02074 0.3332912,0.023025 0.4863281,0.125 0.1530369,0.1019754 0.2650004,0.2533474 0.3046875,0.4023437 0.039687,0.1489964 0.034854,0.302 -0.1132813,0.5292969 L 6.9140625,7.5078125 A 0.59682722,0.59682722 0 0 0 6.8320312,7.6933594 C 6.7246537,8.1222017 6.6624466,8.7232937 6.8183594,9.3574219 6.9742722,9.9915501 7.4258529,10.682968 8.2421875,10.955078 a 0.59682722,0.59682722 0 0 0 0.042969,0.01172 c 0.4832909,0.12101 1.1518485,0.116836 1.8105467,-0.246094 0.658698,-0.36293 1.238515,-1.104685 1.46875,-2.2558592 l -0.01758,0.072266 c 0.2487,-0.7460759 0.620846,-1.7205581 1.134766,-2.4628907 0.51392,-0.7423325 1.097872,-1.2089843 1.86914,-1.2089843 z"
         id="path1" /></g></g></svg>
