<?xml version="1.0" encoding="UTF-8" standalone="no"?>
<!-- Created with Inkscape (http://www.inkscape.org/) -->

<svg
   width="256"
   height="256"
   viewBox="0 0 67.733332 67.733334"
   version="1.1"
   id="svg1"
   inkscape:export-filename="Shell.png"
   inkscape:export-xdpi="96"
   inkscape:export-ydpi="96"
   inkscape:version="1.4.3 (0d15f75042, 2025-12-25)"
   sodipodi:docname="Chill.svg"
   xml:space="preserve"
   xmlns:inkscape="http://www.inkscape.org/namespaces/inkscape"
   xmlns:sodipodi="http://sodipodi.sourceforge.net/DTD/sodipodi-0.dtd"
   xmlns="http://www.w3.org/2000/svg"
   xmlns:svg="http://www.w3.org/2000/svg"><sodipodi:namedview
     id="namedview1"
     pagecolor="#ffffff"
     bordercolor="#000000"
     borderopacity="0.25"
     inkscape:showpageshadow="2"
     inkscape:pageopacity="0.0"
     inkscape:pagecheckerboard="false"
     inkscape:deskcolor="#d1d1d1"
     inkscape:document-units="mm"
     inkscape:zoom="2"
     inkscape:cx="47.5"
     inkscape:cy="114.5"
     inkscape:window-width="1900"
     inkscape:window-height="1047"
     inkscape:window-x="0"
     inkscape:window-y="0"
     inkscape:window-maximized="1"
     inkscape:current-layer="layer1" /><defs
     id="defs1" /><g
     inkscape:label="Layer 1"
     inkscape:groupmode="layer"
     id="layer1"><path
       style="baseline-shift:baseline;display:inline;overflow:visible;opacity:1;vector-effect:none;fill:#468232;stroke-width:1.04132;enable-background:accumulate;stop-color:#000000;stop-opacity:1;fill-opacity:1"
       d="M 30.319306,0.18917632 C 11.729449,2.1467791 -1.7689424,18.82267 0.18866035,37.412527 2.1462633,56.002385 18.822154,69.500777 37.412011,67.543174 56.001869,65.585571 69.502283,48.909467 67.54468,30.319609 65.587078,11.729752 48.909164,-1.7684266 30.319306,0.18917632 Z M 30.489062,1.8012225 C 48.207879,-0.06465545 64.066756,12.770549 65.932634,30.489365 67.798512,48.208182 54.961284,64.067272 37.242468,65.93315 19.523652,67.799028 3.6665845,54.961587 1.8007065,37.24277 -0.06517133,19.523955 12.770247,3.6671004 30.489062,1.8012225 Z"
       id="path1" /><path
       style="baseline-shift:baseline;display:inline;overflow:visible;opacity:1;vector-effect:none;fill:#468232;fill-opacity:1;stroke-width:0.977468;stroke-linejoin:round;enable-background:accumulate;stop-color:#000000;stop-opacity:1"
       d="M 33.500636,0.13689424 4.8390514,16.683218 a 0.73317454,0.73317454 0 0 0 -0.3665506,0.635736 v 33.096467 a 0.73317454,0.73317454 0 0 0 0.3665506,0.633826 L 33.500636,67.597481 a 0.73317454,0.73317454 0 0 0 0.733102,0 L 62.895324,51.049247 a 0.73317454,0.73317454 0 0 0 0.36655,-0.633826 V 17.318954 a 0.73317454,0.73317454 0 0 0 -0.36655,-0.635736 L 34.233738,0.13689424 a 0.73317454,0.73317454 0 0 0 -0.733102,0 z M 33.867187,1.6183696 61.795672,17.742779 V 49.991596 L 33.867187,66.116005 5.9387033,49.991596 V 17.742779 Z"
       id="path4" /><path
       style="fill:#468232;fill-opacity:1;stroke-width:0.381944"
       d="m 11.417235,47.352743 -3.8507558,2.223235 -0.1648481,-0.285525 -0.1648479,-0.285526 0.5472821,-2.035684 0.547282,-2.035684 0.5021649,-0.289925 0.502164,-0.289925 0.1380029,0.239029 0.1380032,0.239027 -0.3394756,1.277566 -0.3394748,1.277562 2.8644591,-1.653796 2.864459,-1.653797 0.303168,0.525104 0.303169,0.525103 z"
       id="path5" /><path
       style="fill:#468232;fill-opacity:1;stroke-width:0.382575"
       d="M 33.31046,62.289606 V 60.28834 l -0.911008,-0.906788 -0.911008,-0.906787 v -0.584142 -0.584144 h 0.32604 0.32604 l 0.584968,0.578864 0.584968,0.578864 V 56.923724 55.38324 h 0.556727 0.556728 v 2.102489 2.102491 l 0.911008,0.906787 0.911008,0.906787 v 0.584143 0.584143 h -0.32604 -0.32604 l -0.584968,-0.578864 -0.584968,-0.578864 v 1.43926 1.439261 H 33.867187 33.31046 Z"
       id="path9" /><path
       style="fill:#468232;fill-opacity:1;stroke-width:0.381945"
       d="m 57.522212,45.965588 3.14413,3.14413 -0.23313,0.23313 -0.233131,0.23313 -2.107968,-0.0018 -2.107967,-0.0018 -0.410016,-0.410016 -0.410016,-0.410016 0.195166,-0.195166 0.195165,-0.195165 1.321896,-0.0028 1.321895,-0.0028 -0.249807,-0.249807 -0.249807,-0.249807 -1.712747,0.0022 -1.712745,0.0022 -0.411998,-0.411998 -0.411997,-0.411997 0.230823,-0.230823 0.230824,-0.230824 1.250429,-0.0029 1.25043,-0.0029 -1.445525,-1.445525 -1.445524,-1.445524 0.428745,-0.428745 0.428745,-0.428745 z"
       id="path7" /><path
       style="fill:#468232;fill-opacity:1;stroke-width:0.395209"
       d="m 55.609655,23.21195 2.013578,-1.16254 -1.820624,-0.490003 -1.820623,-0.490003 -0.143051,-0.247772 -0.143051,-0.247771 3.124202,-1.803759 3.124203,-1.803759 0.287556,0.498061 0.287555,0.498061 -2.104134,1.214822 -2.104135,1.214822 1.820623,0.490004 1.820623,0.490003 0.169193,0.29305 0.169192,0.29305 -3.033645,1.751476 -3.033646,1.751476 -0.313696,-0.54334 -0.313697,-0.543339 z"
       id="path8" /><path
       style="fill:#468232;fill-opacity:1;stroke-width:0.453286"
       d="m 31.226623,10.716651 -0.445774,-0.456512 v -0.117682 -0.117682 l 0.959456,-0.9538271 0.959455,-0.953828 v -0.08021 -0.08021 l -0.989439,-1.04455 -0.989438,-1.044551 -0.0304,-0.07861 -0.0304,-0.07863 1.591151,-1.587877 1.591151,-1.5878745 1.615422,1.6187575 1.615426,1.618758 -1.106654,1.111275 -1.106655,1.111274 1.045752,1.045752 1.045754,1.0457541 -0.511658,0.521338 -0.511655,0.52134 -1.039198,-1.061975 -1.039199,-1.0619731 -1.088664,1.0841371 -1.088664,1.084136 z m 3.153809,-5.4790521 -0.601136,-0.601137 -0.566698,0.566698 -0.566696,0.566696 0.592287,0.60133 0.59229,0.601332 0.575543,-0.566892 0.575545,-0.566891 z"
       id="path6" /><path
       style="fill:#468232;fill-opacity:1;stroke-width:0.381945"
       d="m 12.399992,24.588879 -0.37637,-0.37637 0.0024,-1.569773 0.0024,-1.569773 -1.647746,-0.0021 -1.6477437,-0.0021 0.0057,-0.607149 0.0057,-0.60715 2.2490357,0.0016 2.249035,0.0016 -0.0016,2.322344 -0.0016,2.322344 -0.231448,0.231448 -0.231448,0.231449 z m -2.9144728,-2.017432 -2.248736,-0.0016 0.0016,-2.322345 0.0016,-2.322343 0.231448,-0.231448 0.231448,-0.231449 0.3763701,0.37637 0.37637,0.37637 -0.0024,1.569729 -0.0024,1.569728 1.5744008,0.0022 1.574401,0.0022 0.0737,0.0737 0.0737,0.0737 -0.0063,0.533405 -0.0063,0.533405 z"
       id="path10" /><!-- Icon from Myna UI Icons by Praveen Juge - https://github.com/praveenjuge/mynaui-icons/blob/main/LICENSE --><!-- Icon from Fluent Emoji High Contrast by Microsoft Corporation - https://github.com/microsoft/fluentui-emoji/blob/main/LICENSE --><path
       fill="currentColor"
       d="m 49.324576,18.16714 c -0.572948,-0.654916 -1.363923,-1.134426 -2.37704,-1.406549 -2.485233,-0.668848 -5.370466,1.193437 -5.865548,4.60326 l -0.140164,0.968026 -1.33278,-1.332779 c -1.114749,-1.114749 -2.269668,-1.809002 -3.46392,-1.9295 -1.249996,-0.127047 -2.299993,0.393441 -3.107365,1.200813 -0.79344,0.79344 -1.354909,1.851635 -1.294257,3.113924 l 0.0022,0.03687 c -1.225405,-0.113937 -2.25737,0.398358 -3.052449,1.193437 -0.78852,0.78852 -1.350809,1.847536 -1.299173,3.110643 l 0.0033,0.0622 c -1.237701,-0.116393 -2.279498,0.402457 -3.081136,1.204094 q -0.121316,0.121317 -0.234578,0.250686 l -0.303282,-0.303289 c -0.825405,-0.825405 -2.059827,-1.076225 -3.086051,-1.040158 -1.033604,0.03688 -2.217201,0.376226 -3.002444,1.161469 -0.709833,0.709832 -1.236883,1.805729 -1.342619,2.981954 a 4.5208278,4.5208278 0 0 0 1.32952,3.665519 l 9.579472,9.579472 c 2.474579,2.47458 5.574566,4.754901 8.988484,5.536042 3.509004,0.802459 7.211444,-0.01475 10.657334,-3.460642 3.358183,-3.358183 5.409813,-8.614715 4.112279,-13.199123 L 50.891401,33.725798 C 49.868455,30.124177 49.101244,27.417632 50.019273,24.05043 v -0.0033 c 0.237706,-0.877045 0.559836,-2.336875 0.300821,-3.749985 -0.133618,-0.728675 -0.427048,-1.481141 -0.995898,-2.130322 m -17.335995,15.932725 0.01394,0.01394 c 0.605713,0.610663 0.891798,1.239326 0.948351,1.75654 0.05573,0.498369 -0.08771,0.941801 -0.450819,1.304913 -0.489341,0.489342 -0.94016,0.686066 -1.349992,0.686063 -0.408218,0.0016 -1.03606,-0.19344 -1.882779,-1.040159 L 26.52675,34.080693 c -0.908192,-0.908192 -1.167215,-1.611463 -1.189341,-2.086059 -0.02132,-0.454099 0.163935,-0.90983 0.618031,-1.363927 0.439343,-0.439343 0.836052,-0.573779 1.233601,-0.533605 0.446695,0.04508 1.127865,0.336064 2.041794,1.24508 z m -1.100436,-4.379194 -0.01642,-0.01642 c -0.889325,-0.894275 -1.140991,-1.596701 -1.159829,-2.074583 -0.01967,-0.465592 0.17377,-0.927864 0.621307,-1.375402 0.432786,-0.432785 0.822937,-0.563946 1.216387,-0.521309 0.449173,0.04588 1.136057,0.342613 2.059825,1.266381 l 2.741791,2.741791 c 0.615571,0.615572 0.905742,1.249987 0.96639,1.769667 0.05741,0.495085 -0.08443,0.931963 -0.440165,1.287698 -0.482786,0.482787 -0.940172,0.687689 -1.362287,0.690161 -0.412308,0.0024 -1.038523,-0.186063 -1.872126,-1.013111 z m 3.251626,9.094224 c 0.836062,-0.836062 1.206553,-1.913105 1.132782,-3.014743 a 3.7673565,3.7673565 0 0 0 1.655729,-0.275409 c -0.878683,1.914747 -1.500813,4.271295 -1.305732,6.972924 a 1.1600117,1.1600117 0 0 0 2.313928,-0.168059 c -0.232786,-3.199989 0.91885,-5.861453 2.167203,-7.757349 a 15.533101,15.533101 0 0 1 1.741789,-2.184424 12.751053,12.751053 0 0 1 0.760679,-0.727842 l 0.005,-0.0049 a 1.1591866,1.1591866 0 0 0 0.229467,-1.540969 l 0.02045,-0.02045 c 0.883601,-0.8836 1.246712,-2.035236 1.116387,-3.201624 -0.09836,-0.877045 -0.46803,-1.728684 -1.045899,-2.488514 q 0.04591,-0.137736 0.08526,-0.314753 c 0.05409,-0.257379 0.111471,-0.668856 0.21393,-1.381142 l 0.145083,-1.010655 c 0.329508,-2.270479 2.045893,-2.945887 2.969656,-2.69753 0.634434,0.170484 1.00654,0.432797 1.236052,0.695087 0.234392,0.267229 0.383617,0.606546 0.459826,1.020495 0.159837,0.871308 -0.03688,1.90081 -0.259013,2.72786 -1.090981,4.00408 -0.154917,7.287673 0.836062,10.767163 l 0.166392,0.58443 c 1.007372,3.55982 -0.577867,7.986032 -3.521298,10.929463 -2.905725,2.905726 -5.800797,3.458181 -8.500788,2.840151 -2.799165,-0.64016 -5.524565,-2.573758 -7.86636,-4.915553 l -9.580288,-9.580288 c -0.551635,-0.551635 -0.715579,-1.195887 -0.65901,-1.818025 0.05902,-0.660646 0.364751,-1.241796 0.672127,-1.549172 0.230334,-0.230334 0.763118,-0.459828 1.446714,-0.484426 0.690164,-0.02459 1.172126,0.172129 1.363109,0.363113 l 0.903275,0.903275 q -0.03442,0.301648 -0.01966,0.622959 c 0.05988,1.241734 0.709876,2.458941 1.865611,3.614676 l 2.740152,2.740152 c 1.113931,1.113931 2.296701,1.719675 3.522935,1.719663 1.223767,-8.15e-4 2.229501,-0.606553 2.988514,-1.365566 m 3.850801,-10.713069 -2.741791,-2.741791 c -0.908192,-0.908193 -1.167215,-1.611464 -1.189341,-2.086059 -0.02131,-0.454099 0.163938,-0.909833 0.618034,-1.36393 0.440162,-0.440161 0.83605,-0.573776 1.233602,-0.533605 0.449979,0.04508 1.136059,0.339345 2.059007,1.262292 l 2.740151,2.740152 c 0.614751,0.61475 0.904921,1.249166 0.962289,1.770485 0.05573,0.498369 -0.0877,0.941798 -0.450815,1.30491 -0.445902,0.445902 -0.920494,0.638518 -1.381139,0.628688 -0.462309,-0.0098 -1.099181,-0.230327 -1.849997,-0.981142"
       id="path1-1"
       style="stroke-width:2;stroke-dasharray:none;fill:#468232;fill-opacity:1" /></g></svg>
