<?xml version="1.0" encoding="UTF-8" standalone="no"?>
<!-- Created with Inkscape (http://www.inkscape.org/) -->

<svg
   width="256"
   height="256"
   viewBox="0 0 67.733332 67.733334"
   version="1.1"
   id="svg1"
   inkscape:export-filename="Blink.png"
   inkscape:export-xdpi="96"
   inkscape:export-ydpi="96"
   inkscape:version="1.4.3 (0d15f75042, 2025-12-25)"
   sodipodi:docname="Cipher.svg"
   xml:space="preserve"
   xmlns:inkscape="http://www.inkscape.org/namespaces/inkscape"
   xmlns:sodipodi="http://sodipodi.sourceforge.net/DTD/sodipodi-0.dtd"
   xmlns="http://www.w3.org/2000/svg"
   xmlns:svg="http://www.w3.org/2000/svg"><sodipodi:namedview
     id="namedview1"
     pagecolor="#000000"
     bordercolor="#000000"
     borderopacity="0.25"
     inkscape:showpageshadow="2"
     inkscape:pageopacity="0.0"
     inkscape:pagecheckerboard="false"
     inkscape:deskcolor="#d1d1d1"
     inkscape:document-units="mm"
     inkscape:zoom="2.8284271"
     inkscape:cx="74.599765"
     inkscape:cy="126.21856"
     inkscape:window-width="1900"
     inkscape:window-height="1047"
     inkscape:window-x="0"
     inkscape:window-y="0"
     inkscape:window-maximized="1"
     inkscape:current-layer="g2" /><defs
     id="defs1" /><g
     inkscape:label="Layer 1"
     inkscape:groupmode="layer"
     id="layer1"><circle
       style="fill:none;fill-opacity:1;stroke:#c7cfcc;stroke-width:1.5;stroke-linejoin:round;stroke-dasharray:none;stroke-opacity:1"
       id="path10"
       cx="33.866665"
       cy="33.866665"
       r="30.501602" /><path
       style="fill:none;fill-opacity:1;stroke:#c7cfcc;stroke-width:1.5;stroke-linejoin:round;stroke-dasharray:none;stroke-opacity:1"
       d="m 33.866664,3.3650626 c 30.678926,0 33.866666,61.0032034 0,61.0032034"
       id="path11" /><path
       style="fill:none;fill-opacity:1;stroke:#c7cfcc;stroke-width:1.5;stroke-linejoin:round;stroke-dasharray:none;stroke-opacity:1"
       d="M 60.281827,18.615862 C 75.62129,45.184592 24.384836,78.446857 7.4515028,49.117464"
       id="path11-4"
       inkscape:transform-center-x="-1.4148043"
       inkscape:transform-center-y="5.7187678" /><path
       style="fill:none;fill-opacity:1;stroke:#c7cfcc;stroke-width:1.5;stroke-linejoin:round;stroke-dasharray:none;stroke-opacity:1"
       d="M 55.434556,55.434553 C 33.741279,77.12783 -11.648572,36.246123 12.298777,12.298774"
       id="path11-4-7"
       inkscape:transform-center-x="3.3961391"
       inkscape:transform-center-y="3.0717168" /><path
       style="fill:none;fill-opacity:1;stroke:#c7cfcc;stroke-width:1.5;stroke-linejoin:round;stroke-dasharray:none;stroke-opacity:1"
       d="M 18.615866,60.281827 C -7.9528649,44.942364 19.788075,-9.4818296 49.117468,7.4515033"
       id="path11-4-7-0"
       inkscape:transform-center-x="5.3515076"
       inkscape:transform-center-y="-1.6148083" /><path
       style="fill:none;fill-opacity:1;stroke:#c7cfcc;stroke-width:1.5;stroke-linejoin:round;stroke-dasharray:none;stroke-opacity:1"
       d="m 3.3650639,33.866666 c -8e-7,-30.6789274 61.0032031,-33.86666542906885 61.0032041,0"
       id="path11-4-7-0-5"
       inkscape:transform-center-y="-12.109668" /><!-- Icon from MingCute Icon by MingCute Design - https://github.com/Richard9394/MingCute/blob/main/LICENSE --><g
       fill="none"
       fill-rule="evenodd"
       id="g2"
       transform="matrix(1.6756944,0,0,1.6756944,13.758334,12.185864)"
       style="stroke-width:1.19353505;stroke-dasharray:none;fill:#c7cfcc;fill-opacity:1"><!-- Icon from Tabler Icons by Pawe\u0142 Kuna - https://github.com/tabler/tabler-icons/blob/master/LICENSE --><!-- Icon from Huge Icons by Hugeicons - undefined --><!-- Icon from Phosphor by Phosphor Icons - https://github.com/phosphor-icons/core/blob/main/LICENSE --><!-- Icon from Myna UI Icons by Praveen Juge - https://github.com/praveenjuge/mynaui-icons/blob/main/LICENSE --><!-- Icon from Carbon by IBM - undefined --><path
         fill="currentColor"
         d="m 21.775257,14.651323 v -1.712924 c -0.0028,-4.00761 -6.018288,-4.00761 -6.015543,0 v 1.712924 c -0.462974,0.267289 -0.749253,0.760261 -0.751943,1.294846 v 3.759714 c 0.0012,0.830058 0.673829,1.502643 1.503887,1.503884 h 4.511655 c 0.830055,-0.0012 1.502638,-0.673827 1.503882,-1.503884 v -3.759714 c -0.0028,-0.534584 -0.288967,-1.027556 -0.751938,-1.294846 m -3.007772,-3.216807 c 0.830056,0.0012 1.50264,0.673827 1.503884,1.503883 v 1.503888 h -3.007771 v -1.503888 c 0.0012,-0.830058 0.67383,-1.502643 1.503887,-1.503883 m -2.255827,8.271367 v -3.759714 h 4.511655 v 3.759714 z M 1.4728046,4.6670309 H 2.976689 V 10.682572 H 1.4728046 Z m 0,7.5194281 H 2.976689 v 6.015537 H 1.4728046 Z m 9.0233134,0 h 1.503883 v 6.015537 H 10.496118 Z M 4.4805767,4.6670309 H 5.9844595 V 10.682572 H 4.4805767 Z m 9.0233123,0 h 1.503882 V 10.66701 H 13.503889 Z M 7.4883473,18.201996 H 5.9844595 c -0.8305712,-1e-6 -1.5038818,-0.673312 -1.5038828,-1.503883 v -3.00777 c 1e-6,-0.830571 0.6733116,-1.503882 1.5038828,-1.503884 h 1.5038878 c 0.8305713,2e-6 1.5038819,0.673313 1.503883,1.503884 v 3.00777 c -1.1e-6,0.830571 -0.6733117,1.503882 -1.503883,1.503883 M 5.9844595,13.690343 v 3.00777 h 1.5038878 v -3.00777 z M 10.496118,10.682572 H 8.9922303 c -0.830571,-1e-6 -1.5038815,-0.673312 -1.503883,-1.5038824 v -3.007771 c -1.3e-6,-0.8305729 0.67331,-1.5038864 1.503883,-1.5038877 h 1.5038877 c 0.830573,10e-7 1.503884,0.6733146 1.503883,1.5038877 v 3.007771 c -2e-6,0.8305714 -0.673312,1.5038814 -1.503883,1.5038824 M 8.9922303,6.1709186 v 3.007771 h 1.5038877 v -3.007771 z"
         id="path1"
         style="fill:#c7cfcc;fill-opacity:1;stroke-width:1.20392;stroke-dasharray:none"
         sodipodi:nodetypes="ccccccccccccccccccccccccccccccccccccccccccccccccssssssscccccccsccsssccccccc" /></g></g></svg>
