<?xml version="1.0" encoding="UTF-8" standalone="no"?>
<!-- Created with Inkscape (http://www.inkscape.org/) -->

<svg
   width="256"
   height="256"
   viewBox="0 0 67.733332 67.733334"
   version="1.1"
   id="svg1"
   inkscape:export-filename="MedicalScript.png"
   inkscape:export-xdpi="96"
   inkscape:export-ydpi="96"
   inkscape:version="1.4.3 (0d15f75042, 2025-12-25)"
   sodipodi:docname="MedicalScript.svg"
   xml:space="preserve"
   xmlns:inkscape="http://www.inkscape.org/namespaces/inkscape"
   xmlns:sodipodi="http://sodipodi.sourceforge.net/DTD/sodipodi-0.dtd"
   xmlns="http://www.w3.org/2000/svg"
   xmlns:svg="http://www.w3.org/2000/svg"><sodipodi:namedview
     id="namedview1"
     pagecolor="#000000"
     bordercolor="#000000"
     borderopacity="0.25"
     inkscape:showpageshadow="2"
     inkscape:pageopacity="0.0"
     inkscape:pagecheckerboard="false"
     inkscape:deskcolor="#d1d1d1"
     inkscape:document-units="mm"
     inkscape:zoom="2.8284271"
     inkscape:cx="74.599765"
     inkscape:cy="126.21856"
     inkscape:window-width="1900"
     inkscape:window-height="1047"
     inkscape:window-x="0"
     inkscape:window-y="0"
     inkscape:window-maximized="1"
     inkscape:current-layer="g2" /><defs
     id="defs1" /><g
     inkscape:label="Layer 1"
     inkscape:groupmode="layer"
     id="layer1"><circle
       style="fill:none;fill-opacity:1;stroke:#c7cfcc;stroke-width:1.5;stroke-linejoin:round;stroke-dasharray:none;stroke-opacity:1"
       id="path10"
       cx="33.866665"
       cy="33.866665"
       r="30.501602" /><path
       style="fill:none;fill-opacity:1;stroke:#c7cfcc;stroke-width:1.5;stroke-linejoin:round;stroke-dasharray:none;stroke-opacity:1"
       d="m 33.866664,3.3650626 c 30.678926,0 33.866666,61.0032034 0,61.0032034"
       id="path11" /><path
       style="fill:none;fill-opacity:1;stroke:#c7cfcc;stroke-width:1.5;stroke-linejoin:round;stroke-dasharray:none;stroke-opacity:1"
       d="M 60.281827,18.615862 C 75.62129,45.184592 24.384836,78.446857 7.4515028,49.117464"
       id="path11-4"
       inkscape:transform-center-x="-1.4148043"
       inkscape:transform-center-y="5.7187678" /><path
       style="fill:none;fill-opacity:1;stroke:#c7cfcc;stroke-width:1.5;stroke-linejoin:round;stroke-dasharray:none;stroke-opacity:1"
       d="M 55.434556,55.434553 C 33.741279,77.12783 -11.648572,36.246123 12.298777,12.298774"
       id="path11-4-7"
       inkscape:transform-center-x="3.3961391"
       inkscape:transform-center-y="3.0717168" /><path
       style="fill:none;fill-opacity:1;stroke:#c7cfcc;stroke-width:1.5;stroke-linejoin:round;stroke-dasharray:none;stroke-opacity:1"
       d="M 18.615866,60.281827 C -7.9528649,44.942364 19.788075,-9.4818296 49.117468,7.4515033"
       id="path11-4-7-0"
       inkscape:transform-center-x="5.3515076"
       inkscape:transform-center-y="-1.6148083" /><path
       style="fill:none;fill-opacity:1;stroke:#c7cfcc;stroke-width:1.5;stroke-linejoin:round;stroke-dasharray:none;stroke-opacity:1"
       d="m 3.3650639,33.866666 c -8e-7,-30.6789274 61.0032031,-33.86666542906885 61.0032041,0"
       id="path11-4-7-0-5"
       inkscape:transform-center-y="-12.109668" /><!-- Icon from MingCute Icon by MingCute Design - https://github.com/Richard9394/MingCute/blob/main/LICENSE --><g
       fill="none"
       fill-rule="evenodd"
       id="g2"
       transform="matrix(1.6756944,0,0,1.6756944,13.758334,12.185864)"
       style="stroke-width:1.19353505;stroke-dasharray:none;fill:#c7cfcc;fill-opacity:1"><!-- Icon from Tabler Icons by Pawe\u0142 Kuna - https://github.com/tabler/tabler-icons/blob/master/LICENSE --><!-- Icon from Huge Icons by Hugeicons - undefined --><!-- Icon from Phosphor by Phosphor Icons - https://github.com/phosphor-icons/core/blob/main/LICENSE --><!-- Icon from Myna UI Icons by Praveen Juge - https://github.com/praveenjuge/mynaui-icons/blob/main/LICENSE --><!-- Icon from Carbon by IBM - undefined --><!-- Icon from GeoGlyphs by Sam Matthews - https://github.com/cugos/geoglyphs/blob/main/LICENSE.md --><!-- Icon from TDesign Icons by TDesign - https://github.com/Tencent/tdesign-icons/blob/main/LICENSE --><!-- Icon from Phosphor by Phosphor Icons - https://github.com/phosphor-icons/core/blob/main/LICENSE --><path
         fill="currentColor"
         d="M 21.06717,16.417304 H 6.414394 c 0.2318092,-0.456646 0.4644898,-0.926365 0.6971704,-1.403927 1.3071942,0.143792 2.8392259,-0.765144 4.5891236,-2.713735 0.435731,1.172989 1.259263,2.695435 2.664933,2.723322 0.789545,0.01569 1.578219,-0.453161 2.389551,-1.426585 0.591723,0.707628 1.8109,1.426585 4.311998,1.426585 a 0.6971705,0.6971705 0 0 0 0,-1.394341 c -2.651861,0 -3.436178,-0.910678 -3.485851,-1.403926 a 0.66841202,0.66841202 0 0 0 -0.475819,-0.675384 0.70937076,0.70937076 0 0 0 -0.806103,0.30414 c -1.051856,1.615693 -1.688895,1.780399 -1.910246,1.77517 -0.719829,-0.01394 -1.451857,-1.701095 -1.702839,-2.912429 A 0.69717026,0.69717026 0 0 0 11.458421,10.422511 C 9.6980661,12.630798 8.5181054,13.374156 7.7834622,13.566749 8.5233342,11.922299 9.0758416,10.478285 9.4296555,9.2625944 10.023993,7.2198855 10.067566,5.7915579 9.5612464,4.8965656 9.2998075,4.4277186 8.7473001,3.8682394 7.6387993,3.8682394 6.23923,3.8682394 5.1350866,5.19112 4.6087231,7.4978821 4.2958679,8.8669503 4.2444516,10.39201 4.4675461,11.680903 4.6906406,12.969797 5.1533873,13.907491 5.8261566,14.464356 5.501101,15.137125 5.1699451,15.794208 4.8475039,16.417304 H 2.9407432 a 0.6971705,0.6971705 0 0 0 0,1.394341 h 1.1686316 c -0.9864959,1.830072 -1.7533832,3.105893 -1.7655837,3.126809 a 0.69717026,0.69717026 0 1 0 1.1947756,0.718085 c 0.013072,-0.02266 0.9821386,-1.637479 2.1525132,-3.844894 H 21.06717 a 0.6971705,0.6971705 0 0 0 0,-1.394341 M 5.9682051,7.8081229 C 6.3150473,6.2856774 6.9869452,5.26258 7.6387993,5.26258 8.103289,5.26258 8.257538,5.4246721 8.3472986,5.5824069 8.6087375,6.0468965 8.9154924,7.6904754 6.4597101,13.110974 5.7398818,12.127964 5.4950008,9.881333 5.9682051,7.8081229"
         id="path1"
         style="stroke-width:1.19353505;stroke-dasharray:none;fill:#c7cfcc;fill-opacity:1" /></g></g></svg>
