<?xml version="1.0" encoding="UTF-8" standalone="no"?>
<!-- Created with Inkscape (http://www.inkscape.org/) -->

<svg
   width="256"
   height="256"
   viewBox="0 0 67.733332 67.733334"
   version="1.1"
   id="svg1"
   inkscape:export-filename="Chill.png"
   inkscape:export-xdpi="96"
   inkscape:export-ydpi="96"
   inkscape:version="1.4.3 (0d15f75042, 2025-12-25)"
   sodipodi:docname="Momentum.svg"
   xml:space="preserve"
   xmlns:inkscape="http://www.inkscape.org/namespaces/inkscape"
   xmlns:sodipodi="http://sodipodi.sourceforge.net/DTD/sodipodi-0.dtd"
   xmlns="http://www.w3.org/2000/svg"
   xmlns:svg="http://www.w3.org/2000/svg"><sodipodi:namedview
     id="namedview1"
     pagecolor="#ffffff"
     bordercolor="#000000"
     borderopacity="0.25"
     inkscape:showpageshadow="2"
     inkscape:pageopacity="0.0"
     inkscape:pagecheckerboard="false"
     inkscape:deskcolor="#d1d1d1"
     inkscape:document-units="mm"
     inkscape:zoom="2"
     inkscape:cx="47.5"
     inkscape:cy="114.5"
     inkscape:window-width="1900"
     inkscape:window-height="1047"
     inkscape:window-x="0"
     inkscape:window-y="0"
     inkscape:window-maximized="1"
     inkscape:current-layer="layer1" /><defs
     id="defs1" /><g
     inkscape:label="Layer 1"
     inkscape:groupmode="layer"
     id="layer1"><path
       style="baseline-shift:baseline;display:inline;overflow:visible;opacity:1;vector-effect:none;fill:#468232;stroke-width:1.04132;enable-background:accumulate;stop-color:#000000;stop-opacity:1;fill-opacity:1"
       d="M 30.319306,0.18917632 C 11.729449,2.1467791 -1.7689424,18.82267 0.18866035,37.412527 2.1462633,56.002385 18.822154,69.500777 37.412011,67.543174 56.001869,65.585571 69.502283,48.909467 67.54468,30.319609 65.587078,11.729752 48.909164,-1.7684266 30.319306,0.18917632 Z M 30.489062,1.8012225 C 48.207879,-0.06465545 64.066756,12.770549 65.932634,30.489365 67.798512,48.208182 54.961284,64.067272 37.242468,65.93315 19.523652,67.799028 3.6665845,54.961587 1.8007065,37.24277 -0.06517133,19.523955 12.770247,3.6671004 30.489062,1.8012225 Z"
       id="path1" /><path
       style="baseline-shift:baseline;display:inline;overflow:visible;opacity:1;vector-effect:none;fill:#468232;fill-opacity:1;stroke-width:0.977468;stroke-linejoin:round;enable-background:accumulate;stop-color:#000000;stop-opacity:1"
       d="M 33.500636,0.13689424 4.8390514,16.683218 a 0.73317454,0.73317454 0 0 0 -0.3665506,0.635736 v 33.096467 a 0.73317454,0.73317454 0 0 0 0.3665506,0.633826 L 33.500636,67.597481 a 0.73317454,0.73317454 0 0 0 0.733102,0 L 62.895324,51.049247 a 0.73317454,0.73317454 0 0 0 0.36655,-0.633826 V 17.318954 a 0.73317454,0.73317454 0 0 0 -0.36655,-0.635736 L 34.233738,0.13689424 a 0.73317454,0.73317454 0 0 0 -0.733102,0 z M 33.867187,1.6183696 61.795672,17.742779 V 49.991596 L 33.867187,66.116005 5.9387033,49.991596 V 17.742779 Z"
       id="path4" /><path
       style="fill:#468232;fill-opacity:1;stroke-width:0.381944"
       d="m 11.417235,47.352743 -3.8507558,2.223235 -0.1648481,-0.285525 -0.1648479,-0.285526 0.5472821,-2.035684 0.547282,-2.035684 0.5021649,-0.289925 0.502164,-0.289925 0.1380029,0.239029 0.1380032,0.239027 -0.3394756,1.277566 -0.3394748,1.277562 2.8644591,-1.653796 2.864459,-1.653797 0.303168,0.525104 0.303169,0.525103 z"
       id="path5" /><path
       style="fill:#468232;fill-opacity:1;stroke-width:0.382575"
       d="M 33.31046,62.289606 V 60.28834 l -0.911008,-0.906788 -0.911008,-0.906787 v -0.584142 -0.584144 h 0.32604 0.32604 l 0.584968,0.578864 0.584968,0.578864 V 56.923724 55.38324 h 0.556727 0.556728 v 2.102489 2.102491 l 0.911008,0.906787 0.911008,0.906787 v 0.584143 0.584143 h -0.32604 -0.32604 l -0.584968,-0.578864 -0.584968,-0.578864 v 1.43926 1.439261 H 33.867187 33.31046 Z"
       id="path9" /><path
       style="fill:#468232;fill-opacity:1;stroke-width:0.381945"
       d="m 57.522212,45.965588 3.14413,3.14413 -0.23313,0.23313 -0.233131,0.23313 -2.107968,-0.0018 -2.107967,-0.0018 -0.410016,-0.410016 -0.410016,-0.410016 0.195166,-0.195166 0.195165,-0.195165 1.321896,-0.0028 1.321895,-0.0028 -0.249807,-0.249807 -0.249807,-0.249807 -1.712747,0.0022 -1.712745,0.0022 -0.411998,-0.411998 -0.411997,-0.411997 0.230823,-0.230823 0.230824,-0.230824 1.250429,-0.0029 1.25043,-0.0029 -1.445525,-1.445525 -1.445524,-1.445524 0.428745,-0.428745 0.428745,-0.428745 z"
       id="path7" /><path
       style="fill:#468232;fill-opacity:1;stroke-width:0.395209"
       d="m 55.609655,23.21195 2.013578,-1.16254 -1.820624,-0.490003 -1.820623,-0.490003 -0.143051,-0.247772 -0.143051,-0.247771 3.124202,-1.803759 3.124203,-1.803759 0.287556,0.498061 0.287555,0.498061 -2.104134,1.214822 -2.104135,1.214822 1.820623,0.490004 1.820623,0.490003 0.169193,0.29305 0.169192,0.29305 -3.033645,1.751476 -3.033646,1.751476 -0.313696,-0.54334 -0.313697,-0.543339 z"
       id="path8" /><path
       style="fill:#468232;fill-opacity:1;stroke-width:0.453286"
       d="m 31.226623,10.716651 -0.445774,-0.456512 v -0.117682 -0.117682 l 0.959456,-0.9538271 0.959455,-0.953828 v -0.08021 -0.08021 l -0.989439,-1.04455 -0.989438,-1.044551 -0.0304,-0.07861 -0.0304,-0.07863 1.591151,-1.587877 1.591151,-1.5878745 1.615422,1.6187575 1.615426,1.618758 -1.106654,1.111275 -1.106655,1.111274 1.045752,1.045752 1.045754,1.0457541 -0.511658,0.521338 -0.511655,0.52134 -1.039198,-1.061975 -1.039199,-1.0619731 -1.088664,1.0841371 -1.088664,1.084136 z m 3.153809,-5.4790521 -0.601136,-0.601137 -0.566698,0.566698 -0.566696,0.566696 0.592287,0.60133 0.59229,0.601332 0.575543,-0.566892 0.575545,-0.566891 z"
       id="path6" /><path
       style="fill:#468232;fill-opacity:1;stroke-width:0.381945"
       d="m 12.399992,24.588879 -0.37637,-0.37637 0.0024,-1.569773 0.0024,-1.569773 -1.647746,-0.0021 -1.6477437,-0.0021 0.0057,-0.607149 0.0057,-0.60715 2.2490357,0.0016 2.249035,0.0016 -0.0016,2.322344 -0.0016,2.322344 -0.231448,0.231448 -0.231448,0.231449 z m -2.9144728,-2.017432 -2.248736,-0.0016 0.0016,-2.322345 0.0016,-2.322343 0.231448,-0.231448 0.231448,-0.231449 0.3763701,0.37637 0.37637,0.37637 -0.0024,1.569729 -0.0024,1.569728 1.5744008,0.0022 1.574401,0.0022 0.0737,0.0737 0.0737,0.0737 -0.0063,0.533405 -0.0063,0.533405 z"
       id="path10" /><!-- Icon from Myna UI Icons by Praveen Juge - https://github.com/praveenjuge/mynaui-icons/blob/main/LICENSE --><!-- Icon from Fluent Emoji High Contrast by Microsoft Corporation - https://github.com/microsoft/fluentui-emoji/blob/main/LICENSE --><!-- Icon from System UIcons by Corey Ginnivan - https://github.com/CoreyGinnivan/system-uicons/blob/master/LICENSE --><g
       fill="none"
       fill-rule="evenodd"
       stroke="currentColor"
       stroke-linecap="round"
       stroke-linejoin="round"
       id="g3"
       transform="matrix(2.2300595,0,0,2.2300595,9.3360117,11.566071)"
       style="fill:#468232;fill-opacity:1"><path
         style="baseline-shift:baseline;display:inline;overflow:visible;vector-effect:none;fill:#468232;fill-rule:nonzero;stroke:none;stroke-linecap:butt;stroke-linejoin:miter;enable-background:accumulate;stop-color:#000000;stop-opacity:1;opacity:1;fill-opacity:1"
         d="M 4.5,3 A 0.5,0.5 0 0 0 4,3.5 v 11 C 4,15.87479 5.1252104,17 6.5,17 h 11 A 0.5,0.5 0 0 0 18,16.5 0.5,0.5 0 0 0 17.5,16 H 6.5 C 5.6656506,16 5,15.334349 5,14.5 V 3.5 A 0.5,0.5 0 0 0 4.5,3 Z"
         id="path1-6" /><path
         style="baseline-shift:baseline;display:inline;overflow:visible;vector-effect:none;fill:#468232;fill-rule:nonzero;stroke:none;stroke-linecap:butt;stroke-linejoin:miter;enable-background:accumulate;stop-color:#000000;stop-opacity:1;opacity:1;fill-opacity:1"
         d="M 16.146484,6.1464844 11.5,10.792969 9.8535156,9.1464844 a 0.50005,0.50005 0 0 0 -0.7070312,0 l -3,2.9999996 a 0.5,0.5 0 0 0 0,0.707032 0.5,0.5 0 0 0 0.7070312,0 L 9.5,10.207031 l 1.646484,1.646485 a 0.50005,0.50005 0 0 0 0.707032,0 l 5,-5.0000004 a 0.5,0.5 0 0 0 0,-0.7070312 0.5,0.5 0 0 0 -0.707032,0 z"
         id="path2" /><path
         style="baseline-shift:baseline;display:inline;overflow:visible;vector-effect:none;fill:#468232;fill-rule:nonzero;stroke:none;stroke-linecap:butt;stroke-linejoin:miter;enable-background:accumulate;stop-color:#000000;stop-opacity:1;opacity:1;fill-opacity:1"
         d="M 13.5,6 A 0.5,0.5 0 0 0 13,6.5 0.5,0.5 0 0 0 13.5,7 H 16 V 9.5 A 0.5,0.5 0 0 0 16.5,10 0.5,0.5 0 0 0 17,9.5 v -3 A 0.50005,0.50005 0 0 0 16.5,6 Z"
         id="path3" /></g></g></svg>
