<?xml version="1.0" encoding="UTF-8" standalone="no"?>
<!-- Created with Inkscape (http://www.inkscape.org/) -->

<svg
   width="256"
   height="256"
   viewBox="0 0 67.733332 67.733334"
   version="1.1"
   id="svg1"
   inkscape:export-filename="Instability.png"
   inkscape:export-xdpi="96"
   inkscape:export-ydpi="96"
   inkscape:version="1.4.3 (0d15f75042, 2025-12-25)"
   sodipodi:docname="Sealed.svg"
   xml:space="preserve"
   xmlns:inkscape="http://www.inkscape.org/namespaces/inkscape"
   xmlns:sodipodi="http://sodipodi.sourceforge.net/DTD/sodipodi-0.dtd"
   xmlns="http://www.w3.org/2000/svg"
   xmlns:svg="http://www.w3.org/2000/svg"><sodipodi:namedview
     id="namedview1"
     pagecolor="#ffffff"
     bordercolor="#000000"
     borderopacity="0.25"
     inkscape:showpageshadow="2"
     inkscape:pageopacity="0.0"
     inkscape:pagecheckerboard="false"
     inkscape:deskcolor="#d1d1d1"
     inkscape:document-units="mm"
     inkscape:zoom="2.8284271"
     inkscape:cx="131.34509"
     inkscape:cy="133.28963"
     inkscape:window-width="1900"
     inkscape:window-height="1047"
     inkscape:window-x="0"
     inkscape:window-y="0"
     inkscape:window-maximized="1"
     inkscape:current-layer="layer1" /><defs
     id="defs1" /><g
     inkscape:label="Layer 1"
     inkscape:groupmode="layer"
     id="layer1"><g
       id="g2"
       transform="matrix(1.0415794,0,0,1.0415794,-1.4091732,-1.4081585)"><circle
         style="fill:none;fill-opacity:1;stroke:#a53030;stroke-width:1.2564;stroke-dasharray:none;stroke-opacity:1"
         id="path1"
         cx="30.133722"
         cy="37.227154"
         r="25.624506"
         transform="rotate(-6.0113705)" /><circle
         style="fill:none;fill-opacity:1;stroke:#a53030;stroke-width:1.3621;stroke-dasharray:none;stroke-opacity:1"
         id="path1-3"
         cx="30.133722"
         cy="37.227154"
         r="22.186811"
         transform="rotate(-6.0113705)" /><path
         id="path4"
         style="fill:none;stroke:#a53030;stroke-width:1.3621;stroke-linejoin:round;stroke-opacity:1"
         inkscape:transform-center-x="-1.1323614"
         inkscape:transform-center-y="-2.2523164"
         d="M 52.585109,59.616963 33.998764,56.053096 15.162347,59.624388 12.686114,40.466386 3.5910152,24.03552 20.838306,15.909336 33.862302,2.0329657 46.260511,15.462984 64.142317,24.023506 54.942781,40.804541 Z"
         sodipodi:nodetypes="ccccccccccc" /><path
         id="path4-2"
         style="fill:none;stroke:#a53030;stroke-width:1.3621;stroke-linejoin:round;stroke-opacity:1"
         inkscape:transform-center-x="1.1323615"
         inkscape:transform-center-y="2.2523165"
         d="M 15.150178,8.1163756 33.736524,11.680243 52.572941,8.108951 55.049173,27.266953 64.144272,43.697819 46.896981,51.824003 33.872985,65.700373 21.474777,52.270355 3.592971,43.709833 12.792506,26.928798 Z"
         sodipodi:nodetypes="ccccccccccc" /></g><!-- Icon from System UIcons by Corey Ginnivan - https://github.com/CoreyGinnivan/system-uicons/blob/master/LICENSE --><!-- Icon from Remix Icon by Remix Design - https://github.com/Remix-Design/RemixIcon/blob/master/License --><!-- Icon from Remix Icon by Remix Design - https://github.com/Remix-Design/RemixIcon/blob/master/License --><!-- Icon from Fluent UI System Icons by Microsoft Corporation - https://github.com/microsoft/fluentui-system-icons/blob/main/LICENSE --><!-- Icon from Tabler Icons by Pawe\u0142 Kuna - https://github.com/tabler/tabler-icons/blob/master/LICENSE --><!-- Icon from Charm Icons by Jay Newey - https://github.com/jaynewey/charm-icons/blob/main/LICENSE --><!-- Icon from Garden SVG Icons by Zendesk - https://github.com/zendeskgarden/svg-icons/blob/main/LICENSE.md --><!-- Icon from IconPark Outline by ByteDance - https://github.com/bytedance/IconPark/blob/master/LICENSE --><g
       fill="none"
       stroke="currentColor"
       stroke-width="4"
       id="g3"
       transform="matrix(0.7367595,0,0,0.7367595,16.184439,16.184439)"
       style="stroke-width:2.71459004;stroke-dasharray:none;fill:#a53030;fill-opacity:1"><path
         style="baseline-shift:baseline;display:inline;overflow:visible;vector-effect:none;fill:#a53030;stroke:none;enable-background:accumulate;stop-color:#000000;stop-opacity:1;opacity:1;fill-opacity:1"
         d="m 7,33.642578 c -1.8381062,0 -3.3574219,1.519316 -3.3574219,3.357422 v 5 c 0,1.838106 1.5193157,3.357422 3.3574219,3.357422 h 34 c 1.838106,0 3.357422,-1.519316 3.357422,-3.357422 v -5 c 0,-1.838106 -1.519316,-3.357422 -3.357422,-3.357422 z m 0,2.714844 h 34 c 0.371033,0 0.642578,0.271545 0.642578,0.642578 v 5 c 0,0.371033 -0.271545,0.642578 -0.642578,0.642578 H 7 C 6.6289672,42.642578 6.3574219,42.371033 6.3574219,42 v -5 c 0,-0.371033 0.2715453,-0.642578 0.6425781,-0.642578 z"
         id="path1-4" /><path
         style="baseline-shift:baseline;display:inline;overflow:visible;vector-effect:none;fill:#a53030;stroke:none;enable-background:accumulate;stop-color:#000000;stop-opacity:1;opacity:1;fill-opacity:1"
         d="m 7,27.642578 c -1.8381062,0 -3.3574219,1.519316 -3.3574219,3.357422 v 11 c 0,1.838106 1.5193157,3.357422 3.3574219,3.357422 h 34 c 1.838106,0 3.357422,-1.519316 3.357422,-3.357422 V 31 c 0,-1.838106 -1.519316,-3.357422 -3.357422,-3.357422 z m 0,2.714844 h 34 c 0.371033,0 0.642578,0.271545 0.642578,0.642578 v 11 c 0,0.371033 -0.271545,0.642578 -0.642578,0.642578 H 7 C 6.6289672,42.642578 6.3574219,42.371033 6.3574219,42 V 31 c 0,-0.371033 0.2715453,-0.642578 0.6425781,-0.642578 z"
         id="path2" /><path
         style="baseline-shift:baseline;display:inline;overflow:visible;vector-effect:none;fill:#a53030;stroke:none;stroke-linecap:round;stroke-linejoin:round;enable-background:accumulate;stop-color:#000000;stop-opacity:1;opacity:1;fill-opacity:1"
         d="m 19.705078,13.642578 c -0.991863,-1.37e-4 -1.887437,0.630255 -2.220703,1.564453 L 12.722656,28.542969 A 1.3574308,1.3574308 0 0 0 14,30.357422 h 20 a 1.3574308,1.3574308 0 0 0 1.277344,-1.814453 L 30.515625,15.207031 c -0.333266,-0.934198 -1.22884,-1.56459 -2.220703,-1.564453 z m 0.251953,2.714844 h 8.085938 l 4.03125,11.285156 H 15.925781 Z"
         id="path3" /><path
         style="baseline-shift:baseline;display:inline;overflow:visible;vector-effect:none;fill:#a53030;stroke:none;enable-background:accumulate;stop-color:#000000;stop-opacity:1;opacity:1;fill-opacity:1"
         d="m 20.400391,2.6425781 c -3.720064,0 -6.757813,3.0377485 -6.757813,6.7578125 0,3.7200644 3.037749,6.7578124 6.757813,6.7578124 h 7.199218 c 3.720064,0 6.757813,-3.037748 6.757813,-6.7578124 0,-3.720064 -3.037749,-6.7578125 -6.757813,-6.7578125 z m 0,2.7148438 h 7.199218 c 2.263136,0 4.042969,1.7798327 4.042969,4.0429687 0,2.2631364 -1.779833,4.0429684 -4.042969,4.0429684 h -7.199218 c -2.263136,0 -4.042969,-1.779832 -4.042969,-4.0429684 0,-2.263136 1.779833,-4.0429687 4.042969,-4.0429687 z"
         id="rect3" /></g></g></svg>
