<?xml version="1.0" encoding="UTF-8" standalone="no"?>
<!-- Created with Inkscape (http://www.inkscape.org/) -->

<svg
   width="256"
   height="256"
   viewBox="0 0 67.733332 67.733334"
   version="1.1"
   id="svg1"
   inkscape:export-filename="base-defend.png"
   inkscape:export-xdpi="96"
   inkscape:export-ydpi="96"
   inkscape:version="1.4.3 (0d15f75042, 2025-12-25)"
   sodipodi:docname="Shell.svg"
   xml:space="preserve"
   xmlns:inkscape="http://www.inkscape.org/namespaces/inkscape"
   xmlns:sodipodi="http://sodipodi.sourceforge.net/DTD/sodipodi-0.dtd"
   xmlns="http://www.w3.org/2000/svg"
   xmlns:svg="http://www.w3.org/2000/svg"><sodipodi:namedview
     id="namedview1"
     pagecolor="#ffffff"
     bordercolor="#000000"
     borderopacity="0.25"
     inkscape:showpageshadow="2"
     inkscape:pageopacity="0.0"
     inkscape:pagecheckerboard="false"
     inkscape:deskcolor="#d1d1d1"
     inkscape:document-units="mm"
     inkscape:zoom="2"
     inkscape:cx="47.5"
     inkscape:cy="114.5"
     inkscape:window-width="1900"
     inkscape:window-height="1047"
     inkscape:window-x="0"
     inkscape:window-y="0"
     inkscape:window-maximized="1"
     inkscape:current-layer="layer1" /><defs
     id="defs1" /><g
     inkscape:label="Layer 1"
     inkscape:groupmode="layer"
     id="layer1"><path
       style="baseline-shift:baseline;display:inline;overflow:visible;opacity:1;vector-effect:none;fill:#468232;stroke-width:1.04132;enable-background:accumulate;stop-color:#000000;stop-opacity:1;fill-opacity:1"
       d="M 30.319306,0.18917632 C 11.729449,2.1467791 -1.7689424,18.82267 0.18866035,37.412527 2.1462633,56.002385 18.822154,69.500777 37.412011,67.543174 56.001869,65.585571 69.502283,48.909467 67.54468,30.319609 65.587078,11.729752 48.909164,-1.7684266 30.319306,0.18917632 Z M 30.489062,1.8012225 C 48.207879,-0.06465545 64.066756,12.770549 65.932634,30.489365 67.798512,48.208182 54.961284,64.067272 37.242468,65.93315 19.523652,67.799028 3.6665845,54.961587 1.8007065,37.24277 -0.06517133,19.523955 12.770247,3.6671004 30.489062,1.8012225 Z"
       id="path1" /><path
       style="baseline-shift:baseline;display:inline;overflow:visible;opacity:1;vector-effect:none;fill:#468232;fill-opacity:1;stroke-width:0.977468;stroke-linejoin:round;enable-background:accumulate;stop-color:#000000;stop-opacity:1"
       d="M 33.500636,0.13689424 4.8390514,16.683218 a 0.73317454,0.73317454 0 0 0 -0.3665506,0.635736 v 33.096467 a 0.73317454,0.73317454 0 0 0 0.3665506,0.633826 L 33.500636,67.597481 a 0.73317454,0.73317454 0 0 0 0.733102,0 L 62.895324,51.049247 a 0.73317454,0.73317454 0 0 0 0.36655,-0.633826 V 17.318954 a 0.73317454,0.73317454 0 0 0 -0.36655,-0.635736 L 34.233738,0.13689424 a 0.73317454,0.73317454 0 0 0 -0.733102,0 z M 33.867187,1.6183696 61.795672,17.742779 V 49.991596 L 33.867187,66.116005 5.9387033,49.991596 V 17.742779 Z"
       id="path4" /><path
       style="fill:#468232;fill-opacity:1;stroke-width:0.381944"
       d="m 11.417235,47.352743 -3.8507558,2.223235 -0.1648481,-0.285525 -0.1648479,-0.285526 0.5472821,-2.035684 0.547282,-2.035684 0.5021649,-0.289925 0.502164,-0.289925 0.1380029,0.239029 0.1380032,0.239027 -0.3394756,1.277566 -0.3394748,1.277562 2.8644591,-1.653796 2.864459,-1.653797 0.303168,0.525104 0.303169,0.525103 z"
       id="path5" /><path
       style="fill:#468232;fill-opacity:1;stroke-width:0.382575"
       d="M 33.31046,62.289606 V 60.28834 l -0.911008,-0.906788 -0.911008,-0.906787 v -0.584142 -0.584144 h 0.32604 0.32604 l 0.584968,0.578864 0.584968,0.578864 V 56.923724 55.38324 h 0.556727 0.556728 v 2.102489 2.102491 l 0.911008,0.906787 0.911008,0.906787 v 0.584143 0.584143 h -0.32604 -0.32604 l -0.584968,-0.578864 -0.584968,-0.578864 v 1.43926 1.439261 H 33.867187 33.31046 Z"
       id="path9" /><path
       style="fill:#468232;fill-opacity:1;stroke-width:0.381945"
       d="m 57.522212,45.965588 3.14413,3.14413 -0.23313,0.23313 -0.233131,0.23313 -2.107968,-0.0018 -2.107967,-0.0018 -0.410016,-0.410016 -0.410016,-0.410016 0.195166,-0.195166 0.195165,-0.195165 1.321896,-0.0028 1.321895,-0.0028 -0.249807,-0.249807 -0.249807,-0.249807 -1.712747,0.0022 -1.712745,0.0022 -0.411998,-0.411998 -0.411997,-0.411997 0.230823,-0.230823 0.230824,-0.230824 1.250429,-0.0029 1.25043,-0.0029 -1.445525,-1.445525 -1.445524,-1.445524 0.428745,-0.428745 0.428745,-0.428745 z"
       id="path7" /><path
       style="fill:#468232;fill-opacity:1;stroke-width:0.395209"
       d="m 55.609655,23.21195 2.013578,-1.16254 -1.820624,-0.490003 -1.820623,-0.490003 -0.143051,-0.247772 -0.143051,-0.247771 3.124202,-1.803759 3.124203,-1.803759 0.287556,0.498061 0.287555,0.498061 -2.104134,1.214822 -2.104135,1.214822 1.820623,0.490004 1.820623,0.490003 0.169193,0.29305 0.169192,0.29305 -3.033645,1.751476 -3.033646,1.751476 -0.313696,-0.54334 -0.313697,-0.543339 z"
       id="path8" /><path
       style="fill:#468232;fill-opacity:1;stroke-width:0.453286"
       d="m 31.226623,10.716651 -0.445774,-0.456512 v -0.117682 -0.117682 l 0.959456,-0.9538271 0.959455,-0.953828 v -0.08021 -0.08021 l -0.989439,-1.04455 -0.989438,-1.044551 -0.0304,-0.07861 -0.0304,-0.07863 1.591151,-1.587877 1.591151,-1.5878745 1.615422,1.6187575 1.615426,1.618758 -1.106654,1.111275 -1.106655,1.111274 1.045752,1.045752 1.045754,1.0457541 -0.511658,0.521338 -0.511655,0.52134 -1.039198,-1.061975 -1.039199,-1.0619731 -1.088664,1.0841371 -1.088664,1.084136 z m 3.153809,-5.4790521 -0.601136,-0.601137 -0.566698,0.566698 -0.566696,0.566696 0.592287,0.60133 0.59229,0.601332 0.575543,-0.566892 0.575545,-0.566891 z"
       id="path6" /><path
       style="fill:#468232;fill-opacity:1;stroke-width:0.381945"
       d="m 12.399992,24.588879 -0.37637,-0.37637 0.0024,-1.569773 0.0024,-1.569773 -1.647746,-0.0021 -1.6477437,-0.0021 0.0057,-0.607149 0.0057,-0.60715 2.2490357,0.0016 2.249035,0.0016 -0.0016,2.322344 -0.0016,2.322344 -0.231448,0.231448 -0.231448,0.231449 z m -2.9144728,-2.017432 -2.248736,-0.0016 0.0016,-2.322345 0.0016,-2.322343 0.231448,-0.231448 0.231448,-0.231449 0.3763701,0.37637 0.37637,0.37637 -0.0024,1.569729 -0.0024,1.569728 1.5744008,0.0022 1.574401,0.0022 0.0737,0.0737 0.0737,0.0737 -0.0063,0.533405 -0.0063,0.533405 z"
       id="path10" /><!-- Icon from Myna UI Icons by Praveen Juge - https://github.com/praveenjuge/mynaui-icons/blob/main/LICENSE --><path
       style="baseline-shift:baseline;display:inline;overflow:visible;vector-effect:none;fill:#468232;stroke-linecap:round;stroke-linejoin:round;enable-background:accumulate;stop-color:#000000;stop-opacity:1;opacity:1;fill-opacity:1"
       d="m 33.867187,14.912109 c -0.3969,0 -0.793976,0.117515 -1.134765,0.351563 L 31.5,16.105469 a 0.750075,0.750075 0 0 0 -0.002,0.002 c -3.25566,2.230131 -7.017658,3.607676 -10.94336,4.009765 a 0.750075,0.750075 0 0 0 -0.0059,0.002 c -0.905219,0.100974 -1.599187,0.882165 -1.591797,1.792968 v 9.966797 c 0,4.886379 2.553736,9.360829 5.470703,12.925781 2.915197,3.56279 6.221374,6.233489 7.90625,7.496094 a 0.75,0.75 0 0 0 0,0.0059 c 0.901369,0.68611 2.158226,0.686227 3.060547,0.002 l 0.0039,-0.002 c 1.68415,-1.264065 4.992639,-3.938199 7.908204,-7.501954 2.916933,-3.565427 5.46875,-8.039402 5.46875,-12.925781 v -9.966797 c 0.0074,-0.910803 -0.684625,-1.691994 -1.589844,-1.792968 a 0.750075,0.750075 0 0 0 -0.0078,-0.002 C 43.252033,19.715098 39.490035,18.337553 36.234375,16.107422 a 0.750075,0.750075 0 0 0 0,-0.002 L 35.001953,15.263672 C 34.661164,15.029624 34.264088,14.912109 33.867187,14.912109 Z M 33.582031,16.5 c 0.173917,-0.119443 0.396396,-0.119443 0.570313,0 a 0.750075,0.750075 0 0 0 0.002,0.002 l 1.232422,0.841797 c 3.462322,2.371695 7.463775,3.838012 11.638672,4.265625 h -0.0059 c 0.153886,0.01716 0.257116,0.136181 0.25586,0.291016 a 0.750075,0.750075 0 0 0 0,0.0059 v 9.972656 c 0,4.357713 -2.333948,8.557841 -5.13086,11.976563 -2.796911,3.418722 -6.026559,6.035287 -7.65039,7.253906 a 0.750075,0.750075 0 0 0 -0.0039,0.0039 c -0.371402,0.282707 -0.876644,0.282707 -1.248047,0 a 0.75,0.75 0 0 0 -0.0039,-0.0078 c -1.623311,-1.216243 -4.853514,-3.83377 -7.65039,-7.251953 -2.796876,-3.418184 -5.13086,-7.616897 -5.13086,-11.97461 V 21.90625 a 0.750075,0.750075 0 0 0 0,-0.0059 c -0.0013,-0.154835 0.103927,-0.273851 0.257813,-0.291016 h -0.0059 c 4.174897,-0.427613 8.174397,-1.89393 11.636719,-4.265625 l 1.234375,-0.841797 a 0.750075,0.750075 0 0 0 0.002,-0.002 z"
       id="path1-4" /></g></svg>
