<?xml version="1.0" encoding="UTF-8" standalone="no"?>
<!-- Created with Inkscape (http://www.inkscape.org/) -->

<svg
   width="256"
   height="256"
   viewBox="0 0 67.733332 67.733334"
   version="1.1"
   id="svg1"
   inkscape:export-filename="Bleeding.png"
   inkscape:export-xdpi="96"
   inkscape:export-ydpi="96"
   inkscape:version="1.4.3 (0d15f75042, 2025-12-25)"
   sodipodi:docname="Slowed.svg"
   xml:space="preserve"
   xmlns:inkscape="http://www.inkscape.org/namespaces/inkscape"
   xmlns:sodipodi="http://sodipodi.sourceforge.net/DTD/sodipodi-0.dtd"
   xmlns="http://www.w3.org/2000/svg"
   xmlns:svg="http://www.w3.org/2000/svg"><sodipodi:namedview
     id="namedview1"
     pagecolor="#ffffff"
     bordercolor="#000000"
     borderopacity="0.25"
     inkscape:showpageshadow="2"
     inkscape:pageopacity="0.0"
     inkscape:pagecheckerboard="false"
     inkscape:deskcolor="#d1d1d1"
     inkscape:document-units="mm"
     inkscape:zoom="2.8284271"
     inkscape:cx="131.34509"
     inkscape:cy="133.28963"
     inkscape:window-width="1900"
     inkscape:window-height="1047"
     inkscape:window-x="0"
     inkscape:window-y="0"
     inkscape:window-maximized="1"
     inkscape:current-layer="layer1" /><defs
     id="defs1" /><g
     inkscape:label="Layer 1"
     inkscape:groupmode="layer"
     id="layer1"><g
       id="g2"
       transform="matrix(1.0415794,0,0,1.0415794,-1.4081553,-1.4081553)"><circle
         style="fill:none;fill-opacity:1;stroke:#a53030;stroke-width:1.2564;stroke-dasharray:none;stroke-opacity:1"
         id="path1"
         cx="30.133722"
         cy="37.227154"
         r="25.624506"
         transform="rotate(-6.0113705)" /><circle
         style="fill:none;fill-opacity:1;stroke:#a53030;stroke-width:1.3621;stroke-dasharray:none;stroke-opacity:1"
         id="path1-3"
         cx="30.133722"
         cy="37.227154"
         r="22.186811"
         transform="rotate(-6.0113705)" /><path
         id="path4"
         style="fill:none;stroke:#a53030;stroke-width:1.3621;stroke-linejoin:round;stroke-opacity:1"
         inkscape:transform-center-x="-1.1323614"
         inkscape:transform-center-y="-2.2523164"
         d="M 52.58316,59.616963 33.996815,56.053096 15.160398,59.624388 12.684165,40.466386 3.5890663,24.03552 20.836357,15.909336 33.860353,2.0329657 46.258562,15.462984 64.140368,24.023506 54.940832,40.804541 Z"
         sodipodi:nodetypes="ccccccccccc" /><path
         id="path4-2"
         style="fill:none;stroke:#a53030;stroke-width:1.3621;stroke-linejoin:round;stroke-opacity:1"
         inkscape:transform-center-x="1.1323615"
         inkscape:transform-center-y="2.2523165"
         d="M 15.150178,8.1163756 33.736524,11.680243 52.572941,8.108951 55.049173,27.266953 64.144272,43.697819 46.896981,51.824003 33.872985,65.700373 21.474777,52.270355 3.592971,43.709833 12.792506,26.928798 Z"
         sodipodi:nodetypes="ccccccccccc" /></g><!-- Icon from System UIcons by Corey Ginnivan - https://github.com/CoreyGinnivan/system-uicons/blob/master/LICENSE --><!-- Icon from Remix Icon by Remix Design - https://github.com/Remix-Design/RemixIcon/blob/master/License --><!-- Icon from Remix Icon by Remix Design - https://github.com/Remix-Design/RemixIcon/blob/master/License --><!-- Icon from Fluent UI System Icons by Microsoft Corporation - https://github.com/microsoft/fluentui-system-icons/blob/main/LICENSE --><g
       fill="none"
       id="g1"
       transform="matrix(3.053928,0,0,3.053928,9.4352427,9.4474553)"
       style="stroke-width:0.65489429;stroke-dasharray:none;fill:#a53030;fill-opacity:1"><path
         d="m 7.343,3.989 c -1.856,0 -3.032,1.316 -3.484,2.807 l -0.06,0.2 H 2.497 a 0.5,0.5 0 0 0 -0.5,0.5 c 0,0.686 0.19,1.328 0.522,1.813 0.117,0.171 0.256,0.328 0.415,0.458 l -0.299,0.725 a 1.094,1.094 0 0 0 1.012,1.511 H 4.72 c 0.424,0 0.81,-0.245 0.99,-0.628 L 6.014,10.73 a 10.72,10.72 0 0 0 2.746,0 l 0.303,0.645 c 0.18,0.383 0.567,0.628 0.99,0.628 h 1.063 a 1.093,1.093 0 0 0 1.012,-1.511 l -0.202,-0.49 h 0.965 c 0.617,0 1.112,-0.525 1.112,-1.132 V 8.25 c 0,-0.94 -0.734,-1.75 -1.69,-1.75 H 10.849 C 10.315,5.115 9.056,3.989 7.343,3.989 Z M 11.587,9.002 11.154,7.5 h 1.159 c 0.357,0 0.69,0.314 0.69,0.75 v 0.62 a 0.14,0.14 0 0 1 -0.041,0.096 c -0.028,0.028 -0.055,0.036 -0.071,0.036 z m -0.655,1.214 0.271,0.657 a 0.094,0.094 0 0 1 -0.087,0.13 H 10.054 A 0.094,0.094 0 0 1 9.968,10.949 L 9.779,10.547 c 0.388,-0.088 0.773,-0.199 1.153,-0.331 z m -5.937,0.332 -0.19,0.4 A 0.094,0.094 0 0 1 4.72,11.003 H 3.647 A 0.094,0.094 0 0 1 3.56,10.873 l 0.272,-0.66 c 0.383,0.134 0.771,0.246 1.163,0.335 z M 3.496,7.996 3.294,8.666 a 2.082,2.082 0 0 1 -0.25,-0.67 z m 1.32,-0.91 C 5.183,5.875 6.06,4.99 7.343,4.99 c 1.304,0 2.29,0.91 2.65,2.094 l 0.63,2.182 A 9.754,9.754 0 0 1 4.156,9.268 l 0.66,-2.18 z"
         fill="currentColor"
         id="path1-6"
         style="stroke-width:0.65489429;stroke-dasharray:none;fill:#a53030;fill-opacity:1" /></g></g></svg>
