<?xml version="1.0" encoding="UTF-8" standalone="no"?>
<!-- Created with Inkscape (http://www.inkscape.org/) -->

<svg
   width="256"
   height="256"
   viewBox="0 0 67.733332 67.733334"
   version="1.1"
   id="svg1"
   inkscape:export-filename="Wet.png"
   inkscape:export-xdpi="96"
   inkscape:export-ydpi="96"
   inkscape:version="1.4.3 (0d15f75042, 2025-12-25)"
   sodipodi:docname="Spacing.svg"
   xml:space="preserve"
   xmlns:inkscape="http://www.inkscape.org/namespaces/inkscape"
   xmlns:sodipodi="http://sodipodi.sourceforge.net/DTD/sodipodi-0.dtd"
   xmlns="http://www.w3.org/2000/svg"
   xmlns:svg="http://www.w3.org/2000/svg"><sodipodi:namedview
     id="namedview1"
     pagecolor="#000000"
     bordercolor="#000000"
     borderopacity="0.25"
     inkscape:showpageshadow="2"
     inkscape:pageopacity="0.0"
     inkscape:pagecheckerboard="false"
     inkscape:deskcolor="#d1d1d1"
     inkscape:document-units="mm"
     inkscape:zoom="2.8284271"
     inkscape:cx="74.599765"
     inkscape:cy="126.21856"
     inkscape:window-width="1900"
     inkscape:window-height="1047"
     inkscape:window-x="0"
     inkscape:window-y="0"
     inkscape:window-maximized="1"
     inkscape:current-layer="g2" /><defs
     id="defs1" /><g
     inkscape:label="Layer 1"
     inkscape:groupmode="layer"
     id="layer1"><circle
       style="fill:none;fill-opacity:1;stroke:#c7cfcc;stroke-width:1.5;stroke-linejoin:round;stroke-dasharray:none;stroke-opacity:1"
       id="path10"
       cx="33.866665"
       cy="33.866665"
       r="30.501602" /><path
       style="fill:none;fill-opacity:1;stroke:#c7cfcc;stroke-width:1.5;stroke-linejoin:round;stroke-dasharray:none;stroke-opacity:1"
       d="m 33.866664,3.3650626 c 30.678926,0 33.866666,61.0032034 0,61.0032034"
       id="path11" /><path
       style="fill:none;fill-opacity:1;stroke:#c7cfcc;stroke-width:1.5;stroke-linejoin:round;stroke-dasharray:none;stroke-opacity:1"
       d="M 60.281827,18.615862 C 75.62129,45.184592 24.384836,78.446857 7.4515028,49.117464"
       id="path11-4"
       inkscape:transform-center-x="-1.4148043"
       inkscape:transform-center-y="5.7187678" /><path
       style="fill:none;fill-opacity:1;stroke:#c7cfcc;stroke-width:1.5;stroke-linejoin:round;stroke-dasharray:none;stroke-opacity:1"
       d="M 55.434556,55.434553 C 33.741279,77.12783 -11.648572,36.246123 12.298777,12.298774"
       id="path11-4-7"
       inkscape:transform-center-x="3.3961391"
       inkscape:transform-center-y="3.0717168" /><path
       style="fill:none;fill-opacity:1;stroke:#c7cfcc;stroke-width:1.5;stroke-linejoin:round;stroke-dasharray:none;stroke-opacity:1"
       d="M 18.615866,60.281827 C -7.9528649,44.942364 19.788075,-9.4818296 49.117468,7.4515033"
       id="path11-4-7-0"
       inkscape:transform-center-x="5.3515076"
       inkscape:transform-center-y="-1.6148083" /><path
       style="fill:none;fill-opacity:1;stroke:#c7cfcc;stroke-width:1.5;stroke-linejoin:round;stroke-dasharray:none;stroke-opacity:1"
       d="m 3.3650639,33.866666 c -8e-7,-30.6789274 61.0032031,-33.86666542906885 61.0032041,0"
       id="path11-4-7-0-5"
       inkscape:transform-center-y="-12.109668" /><!-- Icon from MingCute Icon by MingCute Design - https://github.com/Richard9394/MingCute/blob/main/LICENSE --><g
       fill="none"
       fill-rule="evenodd"
       id="g2"
       transform="matrix(1.6756944,0,0,1.6756944,13.758334,12.185864)"
       style="stroke-width:1.19353505;stroke-dasharray:none;fill:#c7cfcc;fill-opacity:1"><!-- Icon from Tabler Icons by Pawe\u0142 Kuna - https://github.com/tabler/tabler-icons/blob/master/LICENSE --><path
         style="baseline-shift:baseline;display:inline;overflow:visible;vector-effect:none;fill:#c7cfcc;fill-rule:nonzero;stroke-linecap:round;stroke-linejoin:round;enable-background:accumulate;stop-color:#000000;stop-opacity:1;opacity:1;fill-opacity:1"
         d="M 6.7675781,3.0429688 C 5.9089564,3.0429688 5.0428373,3.3269004 4.375,3.9199219 3.7071627,4.5129434 3.2651511,5.4261842 3.2636719,6.5429687 V 8.2871094 12.9375 A 0.59676754,0.59676754 0 0 0 3.8613281,13.535156 0.59676754,0.59676754 0 0 0 4.4570312,12.9375 V 8.8847656 H 9.078125 V 12.9375 A 0.59676754,0.59676754 0 0 0 9.6738281,13.535156 0.59676754,0.59676754 0 0 0 10.271484,12.9375 V 8.2871094 6.5429687 C 10.270005,5.4261842 9.8279936,4.5129434 9.1601563,3.9199219 8.4923189,3.3269004 7.6261998,3.0429687 6.7675781,3.0429688 Z m 6.1855469,0.035156 a 0.59676754,0.59676754 0 0 0 -0.349609,0.7675781 l 3.488281,9.3027349 a 0.59682722,0.59682722 0 0 0 1.117187,0 L 20.697266,3.8457031 A 0.59676754,0.59676754 0 0 0 20.349609,3.078125 0.59676754,0.59676754 0 0 0 19.580078,3.4277344 L 16.650391,11.238281 13.720703,3.4277344 A 0.59676754,0.59676754 0 0 0 12.953125,3.078125 Z M 6.7675781,4.2363281 c 0.5935091,0 1.1796609,0.2015347 1.6015625,0.5761719 0.4214942,0.3742754 0.707351,0.9132663 0.7089844,1.7304687 V 7.6914062 H 4.4570312 V 6.5449219 6.5429687 C 4.4586646,5.7257663 4.7445214,5.1867754 5.1660156,4.8125 5.5879172,4.4378628 6.174069,4.2363281 6.7675781,4.2363281 Z M 6.1855469,16.992187 a 0.59676754,0.59676754 0 0 0 -0.421875,0.175782 l -2.3242188,2.324218 a 0.59682722,0.59682722 0 0 0 0,0.246094 0.59676754,0.59676754 0 0 0 -0.1757812,0.175781 0.59676754,0.59676754 0 0 0 0.1757812,0.175782 0.59682722,0.59682722 0 0 0 0,0.246093 l 2.3242188,2.326172 a 0.59676754,0.59676754 0 0 0 0.84375,0 0.59676754,0.59676754 0 0 0 0,-0.84375 L 5.3027344,20.511719 H 18.697266 l -1.304688,1.30664 a 0.59676754,0.59676754 0 0 0 0,0.84375 0.59676754,0.59676754 0 0 0 0.84375,0 l 2.324219,-2.326172 a 0.59682722,0.59682722 0 0 0 0,-0.246093 0.59676754,0.59676754 0 0 0 0.175781,-0.175782 0.59676754,0.59676754 0 0 0 -0.175781,-0.175781 0.59682722,0.59682722 0 0 0 0,-0.246094 l -2.324219,-2.324218 a 0.59676754,0.59676754 0 0 0 -0.84375,0 0.59676754,0.59676754 0 0 0 0,0.84375 l 1.306641,1.30664 H 5.3007812 l 1.3066407,-1.30664 a 0.59676754,0.59676754 0 0 0 0,-0.84375 0.59676754,0.59676754 0 0 0 -0.421875,-0.175782 z"
         id="path1" /></g></g></svg>
