<?xml version="1.0" encoding="UTF-8" standalone="no"?>
<!-- Created with Inkscape (http://www.inkscape.org/) -->

<svg
   width="256"
   height="256"
   viewBox="0 0 67.733332 67.733334"
   version="1.1"
   id="svg1"
   inkscape:export-filename="base-attack.png"
   inkscape:export-xdpi="96"
   inkscape:export-ydpi="96"
   inkscape:version="1.4.3 (0d15f75042, 2025-12-25)"
   sodipodi:docname="Weakness.svg"
   xml:space="preserve"
   xmlns:inkscape="http://www.inkscape.org/namespaces/inkscape"
   xmlns:sodipodi="http://sodipodi.sourceforge.net/DTD/sodipodi-0.dtd"
   xmlns="http://www.w3.org/2000/svg"
   xmlns:svg="http://www.w3.org/2000/svg"><sodipodi:namedview
     id="namedview1"
     pagecolor="#ffffff"
     bordercolor="#000000"
     borderopacity="0.25"
     inkscape:showpageshadow="2"
     inkscape:pageopacity="0.0"
     inkscape:pagecheckerboard="false"
     inkscape:deskcolor="#d1d1d1"
     inkscape:document-units="mm"
     inkscape:zoom="2.8284271"
     inkscape:cx="131.34509"
     inkscape:cy="133.28963"
     inkscape:window-width="1900"
     inkscape:window-height="1047"
     inkscape:window-x="0"
     inkscape:window-y="0"
     inkscape:window-maximized="1"
     inkscape:current-layer="layer1" /><defs
     id="defs1" /><g
     inkscape:label="Layer 1"
     inkscape:groupmode="layer"
     id="layer1"><g
       id="g2"
       transform="matrix(1.0415794,0,0,1.0415794,-1.4081553,-1.4081553)"><circle
         style="fill:none;fill-opacity:1;stroke:#a53030;stroke-width:1.2564;stroke-dasharray:none;stroke-opacity:1"
         id="path1"
         cx="30.133722"
         cy="37.227154"
         r="25.624506"
         transform="rotate(-6.0113705)" /><circle
         style="fill:none;fill-opacity:1;stroke:#a53030;stroke-width:1.3621;stroke-dasharray:none;stroke-opacity:1"
         id="path1-3"
         cx="30.133722"
         cy="37.227154"
         r="22.186811"
         transform="rotate(-6.0113705)" /><path
         id="path4"
         style="fill:none;stroke:#a53030;stroke-width:1.3621;stroke-linejoin:round;stroke-opacity:1"
         inkscape:transform-center-x="-1.1323614"
         inkscape:transform-center-y="-2.2523164"
         d="M 52.58316,59.616963 33.996815,56.053096 15.160398,59.624388 12.684165,40.466386 3.5890663,24.03552 20.836357,15.909336 33.860353,2.0329657 46.258562,15.462984 64.140368,24.023506 54.940832,40.804541 Z"
         sodipodi:nodetypes="ccccccccccc" /><path
         id="path4-2"
         style="fill:none;stroke:#a53030;stroke-width:1.3621;stroke-linejoin:round;stroke-opacity:1"
         inkscape:transform-center-x="1.1323615"
         inkscape:transform-center-y="2.2523165"
         d="M 15.150178,8.1163756 33.736524,11.680243 52.572941,8.108951 55.049173,27.266953 64.144272,43.697819 46.896981,51.824003 33.872985,65.700373 21.474777,52.270355 3.592971,43.709833 12.792506,26.928798 Z"
         sodipodi:nodetypes="ccccccccccc" /></g><path
       style="baseline-shift:baseline;display:inline;overflow:visible;vector-effect:none;fill:#a53030;stroke-linecap:round;stroke-linejoin:round;enable-background:accumulate;stop-color:#000000;stop-opacity:1;opacity:1;fill-opacity:1"
       d="m 33.867187,18.548828 c -0.426554,0 -0.8532,0.125899 -1.21875,0.376953 l -0.957031,0.654297 c -2.446835,1.676087 -5.274195,2.711475 -8.224609,3.013672 a 1.1785578,1.1785578 0 0 0 -0.0039,0 c -1.007903,0.105068 -1.773438,0.979681 -1.773438,1.982422 v 7.746094 c 0,1.808803 0.430776,3.539187 1.107422,5.144531 a 1.17844,1.17844 0 0 0 1.542969,0.628906 1.17844,1.17844 0 0 0 0.628906,-1.544922 c -0.580354,-1.376892 -0.921875,-2.794259 -0.921875,-4.228515 v -7.460938 c 3.214202,-0.386337 6.300716,-1.504832 8.974609,-3.335937 l 0.002,-0.002 0.84375,-0.576171 0.84375,0.578125 c 1.078142,0.737674 2.218582,1.363145 3.402344,1.875 a 1.17844,1.17844 0 0 0 1.548828,-0.615235 1.17844,1.17844 0 0 0 -0.613281,-1.548828 c -1.047414,-0.452898 -2.053937,-1.004936 -3.005859,-1.65625 a 1.1785578,1.1785578 0 0 0 -0.002,0 l -0.955079,-0.654297 c -0.365549,-0.251054 -0.792195,-0.376953 -1.21875,-0.376953 z m 13.306641,0.34375 -4.023437,4.023438 a 1.17844,1.17844 0 0 0 0,0.0039 l -17.548829,17.544922 -6.708984,6.708984 a 1.17844,1.17844 0 0 0 0,1.667969 1.17844,1.17844 0 0 0 1.666016,0 l 5.845703,-5.845703 c 2.227078,2.63376 4.638931,4.712965 5.912109,5.666015 0.909693,0.692447 2.182131,0.692691 3.09375,0.0039 l 0.002,-0.002 c 1.332584,-0.998534 3.935392,-3.09743 6.248047,-5.923828 2.313545,-2.827484 4.382813,-6.412322 4.382813,-10.417968 v -7.746094 c 0,-0.332963 -0.187696,-0.601229 -0.337891,-0.882813 l 3.136719,-3.134765 a 1.17844,1.17844 0 0 0 0,-1.666016 1.17844,1.17844 0 0 0 -1.667969,0 z M 43.6875,25.714844 v 6.607422 c 0,3.17498 -1.726712,6.328908 -3.851563,8.925781 -2.12485,2.596872 -4.60101,4.606489 -5.83789,5.533203 a 1.1785578,1.1785578 0 0 0 -0.0078,0.0039 c -0.07749,0.05899 -0.170551,0.05899 -0.248047,0 a 1.1785578,1.1785578 0 0 0 -0.0078,-0.0059 c -1.207416,-0.903515 -3.578791,-2.933441 -5.669922,-5.44336 z"
       id="path1-6" /></g></svg>
