<?xml version="1.0" encoding="UTF-8" standalone="no"?>
<!-- Created with Inkscape (http://www.inkscape.org/) -->

<svg
   width="256"
   height="256"
   viewBox="0 0 67.733332 67.733334"
   version="1.1"
   id="svg1"
   inkscape:export-filename="Wet.png"
   inkscape:export-xdpi="96"
   inkscape:export-ydpi="96"
   inkscape:version="1.4.3 (0d15f75042, 2025-12-25)"
   sodipodi:docname="Wet.svg"
   xml:space="preserve"
   xmlns:inkscape="http://www.inkscape.org/namespaces/inkscape"
   xmlns:sodipodi="http://sodipodi.sourceforge.net/DTD/sodipodi-0.dtd"
   xmlns="http://www.w3.org/2000/svg"
   xmlns:svg="http://www.w3.org/2000/svg"><sodipodi:namedview
     id="namedview1"
     pagecolor="#000000"
     bordercolor="#000000"
     borderopacity="0.25"
     inkscape:showpageshadow="2"
     inkscape:pageopacity="0.0"
     inkscape:pagecheckerboard="false"
     inkscape:deskcolor="#d1d1d1"
     inkscape:document-units="mm"
     inkscape:zoom="8"
     inkscape:cx="124.125"
     inkscape:cy="177.5"
     inkscape:window-width="1900"
     inkscape:window-height="1047"
     inkscape:window-x="0"
     inkscape:window-y="0"
     inkscape:window-maximized="1"
     inkscape:current-layer="g2" /><defs
     id="defs1" /><g
     inkscape:label="Layer 1"
     inkscape:groupmode="layer"
     id="layer1"><circle
       style="fill:none;fill-opacity:1;stroke:#c7cfcc;stroke-width:1.5;stroke-linejoin:round;stroke-dasharray:none;stroke-opacity:1"
       id="path10"
       cx="33.866665"
       cy="33.866665"
       r="30.501602" /><path
       style="fill:none;fill-opacity:1;stroke:#c7cfcc;stroke-width:1.5;stroke-linejoin:round;stroke-dasharray:none;stroke-opacity:1"
       d="m 33.866664,3.3650626 c 30.678926,0 33.866666,61.0032034 0,61.0032034"
       id="path11" /><path
       style="fill:none;fill-opacity:1;stroke:#c7cfcc;stroke-width:1.5;stroke-linejoin:round;stroke-dasharray:none;stroke-opacity:1"
       d="M 60.281827,18.615862 C 75.62129,45.184592 24.384836,78.446857 7.4515028,49.117464"
       id="path11-4"
       inkscape:transform-center-x="-1.4148043"
       inkscape:transform-center-y="5.7187678" /><path
       style="fill:none;fill-opacity:1;stroke:#c7cfcc;stroke-width:1.5;stroke-linejoin:round;stroke-dasharray:none;stroke-opacity:1"
       d="M 55.434556,55.434553 C 33.741279,77.12783 -11.648572,36.246123 12.298777,12.298774"
       id="path11-4-7"
       inkscape:transform-center-x="3.3961391"
       inkscape:transform-center-y="3.0717168" /><path
       style="fill:none;fill-opacity:1;stroke:#c7cfcc;stroke-width:1.5;stroke-linejoin:round;stroke-dasharray:none;stroke-opacity:1"
       d="M 18.615866,60.281827 C -7.9528649,44.942364 19.788075,-9.4818296 49.117468,7.4515033"
       id="path11-4-7-0"
       inkscape:transform-center-x="5.3515076"
       inkscape:transform-center-y="-1.6148083" /><path
       style="fill:none;fill-opacity:1;stroke:#c7cfcc;stroke-width:1.5;stroke-linejoin:round;stroke-dasharray:none;stroke-opacity:1"
       d="m 3.3650639,33.866666 c -8e-7,-30.6789274 61.0032031,-33.86666542906885 61.0032041,0"
       id="path11-4-7-0-5"
       inkscape:transform-center-y="-12.109668" /><!-- Icon from MingCute Icon by MingCute Design - https://github.com/Richard9394/MingCute/blob/main/LICENSE --><g
       fill="none"
       fill-rule="evenodd"
       id="g2"
       transform="matrix(1.6756944,0,0,1.6756944,13.758334,12.185864)"
       style="stroke-width:1.19353505;stroke-dasharray:none;fill:#c7cfcc;fill-opacity:1"><path
         fill="currentColor"
         d="m 16.696,2.378 a 1.183,1.183 0 0 1 1.608,0 c 0.28,0.258 0.93,0.892 1.517,1.724 C 20.39,4.91 21,6.042 21,7.278 21,9.252 19.512,11 17.5,11 15.488,11 14,9.252 14,7.278 14,6.043 14.61,4.91 15.18,4.102 A 11.3,11.3 0 0 1 16.696,2.378 M 17.5,4.406 A 9,9 0 0 0 16.814,5.254 C 16.324,5.949 16,6.664 16,7.278 16,8.31 16.75,9 17.5,9 18.25,9 19,8.31 19,7.278 19,6.664 18.676,5.949 18.186,5.254 A 9,9 0 0 0 17.5,4.406 M 4.708,5.363 a 1.18,1.18 0 0 1 1.584,0 C 6.498,5.549 6.9,5.936 7.258,6.436 7.6,6.913 8,7.627 8,8.444 8,9.821 6.915,11 5.5,11 4.085,11 3,9.82 3,8.444 3,7.627 3.4,6.913 3.742,6.436 4.1,5.936 4.502,5.549 4.708,5.363 M 5.5,7.427 A 4,4 0 0 0 5.368,7.601 C 5.11,7.96 5,8.254 5,8.444 5,8.786 5.258,9 5.5,9 5.742,9 6,8.786 6,8.444 6,8.254 5.89,7.961 5.632,7.601 A 4,4 0 0 0 5.5,7.427 m 4.71,1.934 a 1.184,1.184 0 0 1 1.58,0 17.4,17.4 0 0 1 2.331,2.56 C 15.044,13.175 16,14.894 16,16.722 16,19.572 13.824,22 11,22 8.176,22 6,19.573 6,16.722 6,14.894 6.956,13.175 7.879,11.921 a 17.4,17.4 0 0 1 2.332,-2.56 z M 11,11.366 c -0.42,0.416 -0.982,1.022 -1.51,1.74 C 8.643,14.256 8,15.544 8,16.722 8,18.597 9.405,20 11,20 c 1.595,0 3,-1.403 3,-3.278 0,-1.178 -0.643,-2.465 -1.49,-3.616 A 15,15 0 0 0 11,11.366"
         id="path2"
         style="stroke-width:1.19353505;stroke-dasharray:none;fill:#c7cfcc;fill-opacity:1" /></g></g></svg>
