<?xml version="1.0" encoding="UTF-8" standalone="no"?>
<!-- Created with Inkscape (http://www.inkscape.org/) -->

<svg
   version="1.1"
   id="svg1"
   width="512"
   height="512"
   viewBox="0 0 511.99999 511.99999"
   sodipodi:docname="GrannyCultLogo.svg"
   inkscape:version="1.4.4 (dcaf3e7d9e, 2026-05-05)"
   xmlns:inkscape="http://www.inkscape.org/namespaces/inkscape"
   xmlns:sodipodi="http://sodipodi.sourceforge.net/DTD/sodipodi-0.dtd"
   xmlns="http://www.w3.org/2000/svg"
   xmlns:svg="http://www.w3.org/2000/svg">
  <defs
     id="defs1" />
  <sodipodi:namedview
     id="namedview1"
     pagecolor="#ffffff"
     bordercolor="#000000"
     borderopacity="0.25"
     inkscape:showpageshadow="2"
     inkscape:pageopacity="0.0"
     inkscape:pagecheckerboard="0"
     inkscape:deskcolor="#d1d1d1"
     inkscape:zoom="0.97971265"
     inkscape:cx="176.07203"
     inkscape:cy="245.9905"
     inkscape:window-width="1900"
     inkscape:window-height="1047"
     inkscape:window-x="0"
     inkscape:window-y="0"
     inkscape:window-maximized="1"
     inkscape:current-layer="g1" />
  <g
     inkscape:groupmode="layer"
     inkscape:label="Image"
     id="g1">
    <path
       style="fill:#a23e8c;fill-opacity:1;stroke-width:4.36376"
       d="m 87.741968,511.43079 c -6.716051,-1.88617 -12.132609,-6.27389 -15.48141,-12.5409 -1.338972,-2.50583 -1.572082,-3.99511 -1.554254,-9.93 l 0.01959,-6.98204 4.691888,-10.7875 c 2.58054,-5.93316 4.691463,-11.11733 4.690908,-11.52036 -5.23e-4,-0.4032 -1.825013,-1.2688 -4.054434,-1.92389 -6.909162,-2.03011 -12.611336,-7.99373 -13.626847,-14.2516 -0.444865,-2.74129 -1.143151,0.0653 22.909103,-92.08069 9.121473,-34.94509 18.709268,-71.70553 21.306238,-81.68983 4.50573,-17.32275 4.75912,-18.72826 5.53812,-30.72095 2.42847,-37.38536 9.91543,-67.97139 23.14541,-94.55462 8.51165,-17.1026 17.35508,-29.4485 29.10036,-40.62568 16.44115,-15.645889 28.86101,-21.667377 44.85069,-21.744896 15.86267,-0.07706 28.06806,5.479121 39.75463,18.096756 7.82848,8.45219 6.99125,6.04739 19.01036,54.60123 l 7.84075,31.6746 20.93712,17.54877 c 11.5155,9.65179 24.09951,20.17911 27.96452,23.394 3.86505,3.21489 8.296,7.06374 9.8466,8.55299 l 2.81927,2.70775 h 24.80608 c 14.45356,0 26.53513,0.30988 28.94904,0.74217 2.2786,0.4082 6.97114,2.10531 10.42786,3.77134 10.44954,5.03631 18.1284,14.08699 21.64285,25.50923 1.2337,4.00954 2.4735,29.51041 6.94165,142.78262 0.99974,25.34479 1.98903,48.01063 2.1984,50.36845 l 0.38051,4.28702 3.07497,1.17433 c 1.69126,0.64588 4.58005,2.52755 6.41963,4.18146 12.0578,10.84101 8.9455,30.06812 -5.97558,36.91629 -5.05924,2.32196 -13.18035,2.13571 -18.38803,-0.42155 -7.48682,-3.67664 -11.805,-10.23132 -12.29048,-18.65617 -0.55148,-9.57 3.66589,-16.86897 12.16438,-21.05278 l 4.5906,-2.25998 -0.44066,-8.06786 c -0.24228,-4.43729 -1.08313,-24.09163 -1.86847,-43.67626 -0.78531,-19.5846 -1.80193,-44.87702 -2.25917,-56.20538 l -0.83122,-20.59713 -58.32626,-0.17862 -58.32626,-0.17861 -2.27637,67.90429 c -1.25202,37.34728 -2.33986,68.68022 -2.41747,69.62863 -0.12213,1.49202 0.18057,1.75092 2.24548,1.92111 1.31266,0.10808 2.47553,0.28539 2.58423,0.39448 0.10874,0.10874 0.68252,6.31351 1.27507,13.78848 0.59259,7.47495 1.21653,14.61193 1.38655,15.85996 l 0.3089,2.26916 h -12.90453 -12.90449 l 0.36218,-2.26916 c 0.19951,-1.24803 0.69101,-6.82495 1.09284,-12.39311 1.27177,-17.62558 1.23663,-17.4551 3.59797,-17.4551 1.11984,0 2.1728,-0.39272 2.33989,-0.87275 0.16718,-0.48 1.42247,-33.23446 2.78968,-72.78772 4.55037,-131.63737 4.43507,-128.88204 5.57414,-133.21759 0.58518,-2.22749 1.56343,-5.0157 2.17382,-6.19608 0.92473,-1.78821 0.95379,-2.28754 0.17404,-2.99422 -2.10495,-1.90818 -15.93738,-13.5618 -32.70382,-27.5526 -27.39737,-22.86172 -26.16177,-21.33313 -30.09288,-37.22865 -1.30547,-5.27866 -2.56552,-9.5988 -2.80006,-9.6003 -0.80222,-0.007 -5.3636,10.81179 -7.50668,17.80144 -3.47635,11.33816 -7.07821,32.3816 -7.07821,41.35356 0,2.55565 6.0065,27.36722 15.00458,61.98059 1.29776,4.99213 4.76179,18.50238 7.69786,30.02274 2.93607,11.52033 10.02587,39.24713 15.75504,61.61511 5.72921,22.36794 10.40984,41.69073 10.40141,42.93951 -0.0229,3.48062 -2.51239,8.2099 -6.05858,11.51224 l -3.20506,2.98468 2.28676,16.43256 c 2.42214,17.40553 2.43135,20.4901 0.0774,25.81229 -1.82704,4.13035 -6.61771,9.15716 -10.86104,11.39638 -3.13051,1.65202 -4.28986,1.85711 -10.50106,1.85757 -6.41996,4.9e-4 -7.28017,-0.16457 -10.685,-2.05084 -2.03664,-1.12823 -4.82188,-3.2899 -6.18946,-4.80363 -4.47582,-4.95419 -5.51024,-8.38978 -8.21564,-27.28677 -1.36892,-9.56167 -2.48895,-17.65209 -2.48895,-17.97872 0,-0.32653 -17.39093,-0.59386 -38.64648,-0.59386 h -38.64642 l -8.90655,20.93324 c -10.02857,23.57036 -11.41711,25.74002 -18.74234,29.28621 -5.151646,2.49398 -11.244057,3.23177 -15.896696,1.9251 z M 416.34053,319.82007 c -0.22922,-3.7441 -0.72773,-14.81937 -1.10808,-24.61167 -0.83007,-21.37075 -0.92424,-22.07282 -3.79233,-28.27723 -3.03925,-6.5747 -8.15053,-11.66264 -15.00448,-14.93594 l -5.2749,-2.51916 -24.86463,-0.20702 -24.86463,-0.20702 -0.3443,4.8149 c -0.56251,7.86171 -4.7295,13.91288 -12.41545,18.02932 -1.8975,1.01627 -3.92627,1.30881 -9.07664,1.30881 -6.22335,0 -6.88523,-0.14302 -10.71817,-2.31498 -2.24689,-1.27321 -4.16396,-2.21577 -4.26012,-2.09459 -1.41038,1.77711 -2.03961,8.11876 -2.86214,28.8467 -0.51804,13.0564 -0.95752,24.91714 -0.97652,26.35717 l -0.0349,2.61826 h 58.00691 58.00682 z M 268.62599,96.516371 C 252.25802,92.217659 239.67846,78.2634 236.88822,61.310218 c -0.35739,-2.171462 -0.83324,-2.630303 -4.27115,-4.118663 -7.58009,-3.281601 -14.64729,-11.48216 -16.70564,-19.384661 -3.30025,-12.670503 1.58547,-25.839618 12.22149,-32.9420537 6.0289,-4.02596081 10.54612,-5.22109598 18.42603,-4.87510401 8.24699,0.36208994 14.00284,2.89247461 19.81457,8.71079531 l 3.99801,4.0025814 8.72755,0.0542 c 7.61022,0.04735 9.38064,0.291265 13.82916,1.904882 30.03358,10.8946 38.63979,48.172656 16.25699,70.417628 -8.75011,8.6962 -18.23005,12.581197 -30.47989,12.490977 -3.43157,-0.02612 -7.96728,-0.499788 -10.07935,-1.054466 z"
       id="path1" />
  </g>
</svg>
