<?xml version="1.0" encoding="UTF-8" standalone="no"?>
<!-- Created with Inkscape (http://www.inkscape.org/) -->

<svg
   width="1024"
   height="1024"
   viewBox="0 0 270.93333 270.93333"
   version="1.1"
   id="svg1"
   inkscape:version="1.4.4 (dcaf3e7d9e, 2026-05-05)"
   sodipodi:docname="IconBig.svg"
   inkscape:export-filename="IconBig.png"
   inkscape:export-xdpi="12"
   inkscape:export-ydpi="12"
   xmlns:inkscape="http://www.inkscape.org/namespaces/inkscape"
   xmlns:sodipodi="http://sodipodi.sourceforge.net/DTD/sodipodi-0.dtd"
   xmlns="http://www.w3.org/2000/svg"
   xmlns:svg="http://www.w3.org/2000/svg">
  <sodipodi:namedview
     id="namedview1"
     pagecolor="#ffffff"
     bordercolor="#000000"
     borderopacity="0.25"
     inkscape:showpageshadow="2"
     inkscape:pageopacity="0.0"
     inkscape:pagecheckerboard="0"
     inkscape:deskcolor="#d1d1d1"
     inkscape:document-units="mm"
     inkscape:zoom="0.74475309"
     inkscape:cx="307.48446"
     inkscape:cy="527.69167"
     inkscape:window-width="1900"
     inkscape:window-height="1047"
     inkscape:window-x="0"
     inkscape:window-y="0"
     inkscape:window-maximized="1"
     inkscape:current-layer="layer1" />
  <defs
     id="defs1" />
  <g
     inkscape:label="Layer 1"
     inkscape:groupmode="layer"
     id="layer1">
    <path
       id="path1"
       style="baseline-shift:baseline;display:inline;overflow:visible;opacity:1;vector-effect:none;fill:#a53030;enable-background:accumulate;stop-color:#000000;stop-opacity:1"
       d="M 33.535491 4.8904867 A 0.68111811 0.68111811 0 0 0 33.015756 5.0517729 L 26.431087 10.735857 C 26.854878 11.282111 27.296741 11.816246 27.75852 12.341612 C 28.539991 12.268084 29.331993 12.230446 30.132815 12.230446 C 30.885252 12.230446 31.629875 12.263605 32.365337 12.328597 C 34.571681 12.52357 36.695469 13.004836 38.699241 13.734934 L 38.699364 13.734947 L 38.84218 13.926716 L 32.400288 14.45902 L 28.653923 13.323168 C 29.427753 14.14178 30.254636 14.944155 31.142359 15.744008 C 31.497129 15.760357 31.849687 15.785246 32.19975 15.818563 A 0.68111811 0.68111811 0 0 0 32.321097 15.830469 C 36.697484 16.271888 40.684785 18.023076 43.885455 20.686612 A 0.68111811 0.68111811 0 0 0 44.013679 20.794279 C 47.647401 23.866203 50.243663 28.123944 51.21523 32.971715 A 0.68111811 0.68111811 0 0 0 51.242175 33.091292 C 51.502351 34.429357 51.638729 35.81188 51.638729 37.226518 C 51.638729 40.340388 50.978301 43.298782 49.789882 45.969454 A 0.68111811 0.68111811 0 0 0 49.712882 46.140445 C 47.862459 50.202535 44.785681 53.586248 40.95433 55.819409 A 0.68111811 0.68111811 0 0 0 40.794992 55.911262 C 37.653149 57.70664 34.01373 58.732413 30.13285 58.732413 C 29.426109 58.732413 28.727307 58.698423 28.038141 58.631936 A 0.68111811 0.68111811 0 0 0 27.974192 58.625701 C 23.58271 58.188856 19.582018 56.433151 16.373179 53.75996 A 0.68111811 0.68111811 0 0 0 16.259159 53.664266 C 12.620722 50.590449 10.020498 46.328439 9.0496359 41.47489 A 0.68111811 0.68111811 0 0 0 9.0280271 41.375706 C 8.7661438 40.033332 8.6289417 38.64614 8.6289417 37.226619 C 8.6289417 34.115878 9.2877445 31.160175 10.473712 28.491609 A 0.68111811 0.68111811 0 0 0 10.558665 28.303122 C 10.819645 27.73086 11.104939 27.172048 11.413289 26.628067 C 11.515031 23.937097 11.434708 21.487834 11.118789 19.131257 C 10.709678 19.561017 10.314981 20.004619 9.9354421 20.461266 L 9.9354291 20.461389 L 0.82806728 23.63659 A 0.68111811 0.68111811 0 0 0 0.42598136 24.544872 L 4.1627842 33.368141 C 4.0578521 34.079609 3.9815503 34.800347 3.9349712 35.529138 L 3.9349582 35.529261 L -1.5636752 43.458069 A 0.68111811 0.68111811 0 0 0 -1.361149 44.425903 L 6.9402939 49.531619 L 6.9404043 49.531755 C 7.2474333 50.108949 7.5752665 50.673345 7.9231123 51.223935 L 8.1514366 60.899511 A 0.68111811 0.68111811 0 0 0 8.8888302 61.562353 L 18.504298 60.767826 L 18.504421 60.767839 C 19.184638 61.104764 19.881576 61.413158 20.593539 61.69126 L 20.593662 61.691273 L 26.260656 69.293362 A 0.68111811 0.68111811 0 0 0 27.250902 69.401506 L 34.536758 63.112155 C 35.25565 62.990562 35.964561 62.839717 36.66238 62.660879 L 45.853266 65.447031 A 0.68111811 0.68111811 0 0 0 46.714613 64.950549 L 48.905007 55.574575 C 49.401216 55.06698 49.877027 54.539308 50.331112 53.993 L 50.331125 53.992877 L 50.331248 53.99289 L 59.438383 50.818663 A 0.68111811 0.68111811 0 0 0 59.842514 49.908726 L 56.104724 41.085353 L 56.104737 41.085229 C 56.209639 40.374075 56.285987 39.653561 56.332583 38.925109 L 61.832099 30.997392 A 0.68111811 0.68111811 0 0 0 61.627612 30.029226 L 53.327786 24.923556 C 53.020358 24.345621 52.691914 23.78048 52.343559 23.229221 L 52.115221 13.553769 A 0.68111811 0.68111811 0 0 0 51.377828 12.890927 L 41.759348 13.685635 C 41.08097 13.349767 40.386117 13.042345 39.676177 12.764961 L 34.007963 5.1602482 A 0.68111811 0.68111811 0 0 0 33.535491 4.8904867 z M 33.353579 6.5622974 L 37.402846 11.995504 C 35.093871 11.33077 32.65474 10.974634 30.132854 10.974634 C 29.467911 10.974634 28.808732 10.999325 28.156161 11.047974 L 33.353579 6.5622974 z M 50.771019 14.307839 L 50.933943 21.213584 C 48.996073 18.701068 46.613244 16.548978 43.903964 14.875566 L 50.771019 14.307839 z M 41.698406 15.057883 C 45.458345 17.02195 48.655478 19.914343 50.986245 23.431517 L 50.987463 23.483903 L 44.85238 19.709847 L 41.403363 15.082314 L 41.698406 15.057883 z M 39.802091 15.214769 L 41.358468 17.302983 C 40.01444 16.54366 38.586095 15.916474 37.091126 15.438901 L 39.802091 15.214769 z M 48.426907 23.509105 L 51.025753 25.107687 L 51.095812 28.078434 C 50.382203 26.447399 49.483719 24.915476 48.426907 23.509105 z M 52.407927 25.95791 L 52.476809 26.00021 L 52.476796 26.000333 C 54.174917 29.375247 55.130909 33.188558 55.130909 37.226584 C 55.130909 37.58591 55.123261 37.943428 55.108272 38.299045 L 54.994156 38.463633 L 52.567832 32.735997 L 52.407927 25.95791 z M 10.719222 21.631119 L 9.2683269 27.838603 L 5.5623686 33.182519 L 5.4900514 33.011768 L 5.4900644 33.011645 C 6.2074365 28.781218 7.9863739 24.913651 10.543655 21.692328 L 10.719222 21.631119 z M 54.39276 27.178784 L 60.300041 30.812487 L 56.376 36.470932 C 56.283043 33.18752 55.586262 30.054385 54.39276 27.178784 z M 8.455767 22.420093 C 6.7008286 24.983486 5.3885934 27.873629 4.629549 30.979871 L 1.9629489 24.68315 L 8.455767 22.420093 z M 7.7830141 32.371327 C 7.4456553 33.92936 7.2671609 35.546318 7.2655863 37.204404 L 6.1908395 34.666528 L 7.7830141 32.371327 z M 53.001883 37.251829 L 54.076123 39.787407 L 52.484293 42.082894 C 52.821638 40.525476 53.000086 38.909174 53.001883 37.251829 z M 5.2730079 35.989575 L 7.6988258 41.717282 L 7.8587433 48.497616 L 7.7924457 48.456835 L 7.7923353 48.456699 C 6.0932501 45.080843 5.1367615 41.266103 5.1367615 37.226553 C 5.1367615 36.867072 5.1443282 36.509354 5.1593276 36.153585 L 5.1593405 36.153461 L 5.2730079 35.989575 z M 54.704951 41.271578 L 54.777379 41.442465 C 54.059656 45.673184 52.279917 49.540951 49.721861 52.762328 L 49.547975 52.822965 L 50.998318 46.6148 L 54.704951 41.271578 z M 3.8915274 37.981192 C 3.9844048 41.266367 4.6817358 44.401171 5.8761243 47.278222 L -0.035565113 43.642559 L 3.8915274 37.981192 z M 55.637849 43.473486 L 58.30567 49.770461 L 51.810774 52.034297 C 53.566124 49.470566 54.878621 46.580058 55.637849 43.473486 z M 9.1713655 46.37465 C 9.8852735 48.006796 10.784213 49.539772 11.841698 50.946999 L 9.2417686 49.348053 L 9.1713655 46.37465 z M 48.663977 50.623339 L 48.025886 53.353512 L 45.360935 54.282423 C 46.588097 53.185822 47.696434 51.958756 48.663977 50.623339 z M 47.658656 54.924489 L 47.618884 55.09491 L 47.618747 55.095021 C 44.659045 57.991221 40.982032 60.15733 36.877928 61.30329 L 36.696023 61.248215 L 41.55853 57.050672 L 47.658656 54.924489 z M 9.2802853 50.970863 L 15.414155 54.743419 L 18.864561 59.371971 L 18.569901 59.396318 C 14.80972 57.432472 11.612402 54.540169 9.2815427 51.022879 L 9.2802853 50.970863 z M 9.3341231 53.241714 C 11.271456 55.753673 13.653365 57.905484 16.361714 59.578732 L 9.4976128 60.145648 L 9.3341231 53.241714 z M 47.117038 57.241892 L 45.553131 63.932742 L 38.995208 61.945063 C 41.991914 60.869422 44.736869 59.263988 47.117038 57.241892 z M 37.260759 58.961184 L 35.15333 60.78057 L 32.495424 59.97498 C 34.141694 59.805687 35.73646 59.461444 37.260759 58.961184 z M 18.9078 57.151627 C 20.251677 57.911026 21.679893 58.538406 23.174733 59.01604 L 20.464424 59.239867 L 18.9078 57.151627 z M 27.866357 59.994383 L 33.933546 61.833602 L 33.790172 61.957443 L 33.790048 61.95743 C 32.596356 62.132175 31.375299 62.222607 30.132869 62.222607 C 27.123032 62.222607 24.237981 61.691655 21.56632 60.718105 L 21.423712 60.526732 L 27.866357 59.994383 z M 32.111204 63.406877 L 26.914845 67.893163 L 22.864824 62.460003 C 25.173114 63.124466 27.611707 63.480418 30.132869 63.480418 C 30.798396 63.480418 31.458064 63.455619 32.111204 63.406877 z "
       transform="matrix(4.1433636,-0.43631644,0.43631644,4.1433636,-5.6313335,-5.6309789)" />
    <!-- Icon from Remix Icon by Remix Design - https://github.com/Remix-Design/RemixIcon/blob/master/License -->
    <path
       fill="currentColor"
       d="M 59.446077,30.605568 95.596594,93.219635 A 17.490323,17.490323 0 1 0 110.74135,84.475789 L 74.591166,21.861844 85.944112,15.306946 C 107.41905,46.664798 135.8859,63.889422 184.44951,89.703824 L 176.02587,145.06426 115.436,180.04588 63.278303,159.66934 C 65.195971,104.70223 64.512441,71.436937 48.082253,37.1665 Z m 137.848383,142.565262 -67.9718,39.25056 a 4.3725809,4.3725809 0 0 1 -6.53626,-4.25961 l 1.39189,-12.97191 60.5877,-34.97331 12.06396,5.15219 a 4.3725809,4.3725809 0 0 1 0.46227,7.80147"
       id="path1-6"
       style="fill:#a53030;fill-opacity:1;stroke:none;stroke-width:20.0702;stroke-linecap:round;stroke-dasharray:none;stroke-opacity:1;paint-order:stroke markers fill" />
  </g>
</svg>
